<svg width="1000" height="208" viewBox="0 0 1000 208" fill="none" xmlns="http://www.w3.org/2000/svg">
<path d="M26.7067 159.522L32.4858 155.646L57.9301 175.093L49.5391 144.211L55.2573 140.377L75.2311 170.165L71.3986 172.734L59.6102 155.154C59.2023 154.546 58.5405 153.529 57.6248 152.105C56.7091 150.681 55.712 149.165 54.6333 147.556L62.9835 178.377L58.9889 181.056L33.5853 161.67L34.1972 162.582C34.6867 163.312 35.448 164.419 36.4812 165.901C37.5189 167.361 38.2734 168.442 38.7447 169.145L50.5332 186.726L46.6805 189.309L26.7067 159.522Z" fill="black"/>
<path d="M26.7067 159.522L26.1498 158.691L25.3193 159.248L25.8762 160.078L26.7067 159.522ZM32.4858 155.646L33.093 154.852L32.5239 154.417L31.9289 154.816L32.4858 155.646ZM57.9301 175.093L57.3229 175.888L59.6696 177.681L58.8951 174.831L57.9301 175.093ZM49.5391 144.211L48.9822 143.381L48.3858 143.781L48.5741 144.474L49.5391 144.211ZM55.2573 140.377L56.0879 139.82L55.531 138.99L54.7004 139.547L55.2573 140.377ZM75.2311 170.165L75.788 170.995L76.6185 170.438L76.0616 169.608L75.2311 170.165ZM71.3986 172.734L70.5681 173.291L71.125 174.122L71.9556 173.565L71.3986 172.734ZM54.6333 147.556L55.4638 146.999L53.6681 147.818L54.6333 147.556ZM62.9835 178.377L63.5404 179.208L64.1363 178.808L63.9487 178.116L62.9835 178.377ZM58.9889 181.056L58.3822 181.851L58.9513 182.285L59.5458 181.886L58.9889 181.056ZM33.5853 161.67L34.192 160.875L32.7548 162.227L33.5853 161.67ZM36.4812 165.901L35.6608 166.473L35.6662 166.48L36.4812 165.901ZM50.5332 186.726L51.0901 187.556L51.9207 186.999L51.3638 186.169L50.5332 186.726ZM46.6805 189.309L45.8499 189.866L46.4068 190.696L47.2374 190.14L46.6805 189.309ZM27.2637 160.352L33.0427 156.477L31.9289 154.816L26.1498 158.691L27.2637 160.352ZM31.8786 156.441L57.3229 175.888L58.5374 174.299L33.093 154.852L31.8786 156.441ZM58.8951 174.831L50.5041 143.949L48.5741 144.474L56.9651 175.355L58.8951 174.831ZM50.096 145.042L55.8142 141.208L54.7004 139.547L48.9822 143.381L50.096 145.042ZM54.4268 140.934L74.4005 170.722L76.0616 169.608L56.0879 139.82L54.4268 140.934ZM74.6741 169.334L70.8417 171.904L71.9556 173.565L75.788 170.995L74.6741 169.334ZM72.2292 172.178L60.4407 154.597L58.7796 155.711L70.5681 173.291L72.2292 172.178ZM60.4407 154.597C60.0387 153.997 59.3814 152.988 58.4659 151.565L56.7837 152.646C57.6995 154.071 58.3659 155.094 58.7796 155.711L60.4407 154.597ZM58.4659 151.565C57.5463 150.134 56.5456 148.613 55.4638 146.999L53.8027 148.113C54.8783 149.717 55.8719 151.228 56.7837 152.646L58.4659 151.565ZM53.6681 147.818L62.0183 178.639L63.9487 178.116L55.5985 147.295L53.6681 147.818ZM62.4266 177.547L58.4319 180.225L59.5458 181.886L63.5404 179.208L62.4266 177.547ZM59.5955 180.261L34.192 160.875L32.9787 162.465L58.3822 181.851L59.5955 180.261ZM32.7548 162.227L33.3666 163.139L35.0278 162.025L34.4159 161.113L32.7548 162.227ZM33.3666 163.139C33.8614 163.877 34.627 164.989 35.6608 166.473L37.3016 165.329C36.2691 163.848 35.512 162.748 35.0278 162.025L33.3666 163.139ZM35.6662 166.48C36.703 167.939 37.4509 169.011 37.9142 169.702L39.5753 168.588C39.0959 167.873 38.3348 166.783 37.2963 165.322L35.6662 166.48ZM37.9142 169.702L49.7026 187.283L51.3638 186.169L39.5753 168.588L37.9142 169.702ZM49.9763 185.895L46.1236 188.478L47.2374 190.14L51.0901 187.556L49.9763 185.895ZM47.511 188.752L27.5373 158.965L25.8762 160.078L45.8499 189.866L47.511 188.752Z" fill="white"/>
<path d="M80.3457 123.994C85.7976 120.775 90.8684 120.143 95.5581 122.1C99.218 123.624 102.306 126.517 104.822 130.778C107.544 135.389 108.637 139.913 108.101 144.35C107.472 149.56 104.614 153.667 99.5268 156.671C94.7756 159.476 90.1137 160.112 85.5411 158.578C81.3289 156.982 77.8574 153.872 75.1265 149.247C72.6604 145.071 71.5873 140.884 71.9072 136.688C72.3192 131.304 75.132 127.072 80.3457 123.994ZM97.8218 152.631C101.508 150.455 103.393 147.565 103.477 143.962C103.567 140.336 102.598 136.807 100.57 133.373C98.4268 129.743 95.7484 127.384 92.5348 126.295C89.3352 125.197 86.0886 125.621 82.7951 127.566C79.5996 129.453 77.6424 132.092 76.9234 135.484C76.1962 138.862 77.0946 142.689 79.6186 146.963C81.6378 150.383 84.2045 152.761 87.3186 154.098C90.4385 155.412 93.9396 154.923 97.8218 152.631Z" fill="black"/>
<path d="M95.5581 122.1L95.1731 123.023L95.1735 123.023L95.5581 122.1ZM108.101 144.35L107.108 144.23L107.108 144.23L108.101 144.35ZM85.5411 158.578L85.1868 159.513L85.2048 159.52L85.223 159.526L85.5411 158.578ZM71.9072 136.688L70.9101 136.612L70.9101 136.612L71.9072 136.688ZM103.477 143.962L102.477 143.937L102.477 143.938L103.477 143.962ZM92.5348 126.295L92.2104 127.241L92.2139 127.242L92.5348 126.295ZM76.9234 135.484L77.901 135.695L77.9017 135.692L76.9234 135.484ZM87.3186 154.098L86.9242 155.017L86.9304 155.019L87.3186 154.098ZM80.8541 124.855C86.1088 121.752 90.8456 121.217 95.1731 123.023L95.9431 121.177C90.8912 119.069 85.4864 119.797 79.8372 123.133L80.8541 124.855ZM95.1735 123.023C98.589 124.446 101.527 127.165 103.961 131.286L105.683 130.269C103.085 125.869 99.8471 122.803 95.9427 121.177L95.1735 123.023ZM103.961 131.286C106.594 135.747 107.613 140.052 107.108 144.23L109.094 144.47C109.661 139.774 108.494 135.031 105.683 130.269L103.961 131.286ZM107.108 144.23C106.522 149.089 103.876 152.941 99.0183 155.81L100.035 157.532C105.352 154.393 108.423 150.031 109.094 144.47L107.108 144.23ZM99.0183 155.81C94.477 158.491 90.1155 159.058 85.8591 157.63L85.223 159.526C90.1119 161.166 95.0742 160.461 100.035 157.532L99.0183 155.81ZM85.8953 157.643C81.9346 156.143 78.6261 153.207 75.9876 148.739L74.2654 149.756C77.0888 154.537 80.7232 157.822 85.1868 159.513L85.8953 157.643ZM75.9876 148.739C73.6092 144.711 72.6023 140.726 72.9043 136.764L70.9101 136.612C70.5724 141.042 71.7116 145.43 74.2654 149.756L75.9876 148.739ZM72.9043 136.765C73.288 131.749 75.8821 127.791 80.8541 124.855L79.8372 123.133C74.3819 126.354 71.3503 130.858 70.9101 136.612L72.9043 136.765ZM98.3302 153.492C102.249 151.179 104.383 148.003 104.477 143.985L102.477 143.938C102.403 147.127 100.767 149.731 97.3133 151.77L98.3302 153.492ZM104.476 143.986C104.571 140.155 103.544 136.443 101.431 132.865L99.7091 133.881C101.651 137.171 102.562 140.517 102.477 143.937L104.476 143.986ZM101.431 132.865C99.1968 129.08 96.3471 126.531 92.8557 125.348L92.2139 127.242C95.1496 128.237 97.6569 130.406 99.7091 133.881L101.431 132.865ZM92.8592 125.349C89.3449 124.144 85.7952 124.633 82.2866 126.705L83.3035 128.427C86.3821 126.609 89.3256 126.251 92.2104 127.241L92.8592 125.349ZM82.2866 126.705C78.8689 128.723 76.7266 131.59 75.9452 135.277L77.9017 135.692C78.5581 132.595 80.3303 130.183 83.3035 128.427L82.2866 126.705ZM75.9458 135.274C75.1465 138.987 76.1611 143.074 78.7575 147.472L80.4797 146.455C78.0281 142.303 77.2459 138.738 77.901 135.695L75.9458 135.274ZM78.7575 147.472C80.8655 151.042 83.5828 153.583 86.9242 155.017L87.7131 153.179C84.8261 151.94 82.4101 149.724 80.4797 146.455L78.7575 147.472ZM86.9304 155.019C90.4331 156.495 94.2738 155.887 98.3302 153.492L97.3133 151.77C93.6054 153.959 90.4439 154.329 87.7069 153.176L86.9304 155.019Z" fill="white"/>
<path d="M120.363 101.88C123.354 100.33 126.241 99.5684 129.022 99.5941C133.048 99.6166 136.493 101.525 139.357 105.321L135.087 107.533C133.361 105.476 131.408 104.343 129.229 104.134C127.042 103.91 124.705 104.442 122.22 105.73C119.271 107.257 117.358 109.65 116.48 112.91C115.617 116.161 116.319 119.977 118.588 124.356C120.549 128.142 122.979 130.797 125.876 132.321C128.766 133.83 132.089 133.612 135.847 131.665C138.723 130.175 140.67 128.113 141.688 125.477C142.712 122.82 142.281 119.616 140.393 115.865L130.421 121.031L128.568 117.454L142.55 110.211L151.377 127.25L148.602 128.687L145.439 125.129C144.81 127.489 144.093 129.272 143.288 130.478C141.949 132.528 139.819 134.309 136.9 135.821C133.128 137.775 129.251 138.235 125.269 137.2C120.719 135.671 117.059 132.232 114.289 126.885C111.527 121.552 110.775 116.562 112.033 111.914C113.222 107.486 115.998 104.141 120.363 101.88Z" fill="black"/>
<path d="M129.022 99.5941L129.013 100.594L129.016 100.594L129.022 99.5941ZM139.357 105.321L139.817 106.209L140.869 105.664L140.155 104.718L139.357 105.321ZM135.087 107.533L134.32 108.176L134.835 108.789L135.547 108.421L135.087 107.533ZM129.229 104.134L129.127 105.128L129.133 105.129L129.229 104.134ZM116.48 112.91L115.515 112.65L115.514 112.653L116.48 112.91ZM125.876 132.321L125.411 133.206L125.413 133.207L125.876 132.321ZM141.688 125.477L142.62 125.838L142.621 125.837L141.688 125.477ZM140.393 115.865L141.286 115.415L140.831 114.512L139.933 114.977L140.393 115.865ZM130.421 121.031L129.533 121.491L129.993 122.379L130.881 121.919L130.421 121.031ZM128.568 117.454L128.108 116.566L127.22 117.026L127.68 117.914L128.568 117.454ZM142.55 110.211L143.438 109.751L142.978 108.863L142.09 109.323L142.55 110.211ZM151.377 127.25L151.837 128.138L152.725 127.678L152.265 126.79L151.377 127.25ZM148.602 128.687L147.854 129.351L148.371 129.933L149.062 129.575L148.602 128.687ZM145.439 125.129L146.186 124.465L144.951 123.075L144.473 124.872L145.439 125.129ZM143.288 130.478L142.456 129.922L142.451 129.931L143.288 130.478ZM125.269 137.2L124.95 138.148L124.983 138.159L125.017 138.168L125.269 137.2ZM112.033 111.914L112.998 112.175L112.999 112.173L112.033 111.914ZM120.823 102.768C123.7 101.278 126.426 100.57 129.013 100.594L129.031 98.5942C126.056 98.5666 123.009 99.3831 119.903 100.992L120.823 102.768ZM129.016 100.594C132.672 100.614 135.844 102.326 138.559 105.923L140.155 104.718C137.142 100.725 133.424 98.6186 129.027 98.5941L129.016 100.594ZM138.897 104.433L134.627 106.645L135.547 108.421L139.817 106.209L138.897 104.433ZM135.853 106.89C133.999 104.68 131.822 103.378 129.324 103.138L129.133 105.129C130.995 105.308 132.723 106.271 134.32 108.176L135.853 106.89ZM129.33 103.139C126.903 102.891 124.371 103.489 121.76 104.842L122.68 106.618C125.039 105.395 127.18 104.93 129.127 105.128L129.33 103.139ZM121.76 104.842C118.558 106.501 116.464 109.124 115.515 112.65L117.446 113.17C118.252 110.176 119.985 108.014 122.68 106.618L121.76 104.842ZM115.514 112.653C114.562 116.236 115.37 120.317 117.7 124.816L119.476 123.896C117.269 119.637 116.672 116.087 117.447 113.166L115.514 112.653ZM117.7 124.816C119.727 128.729 122.285 131.562 125.411 133.206L126.341 131.436C123.673 130.032 121.371 127.555 119.476 123.896L117.7 124.816ZM125.413 133.207C128.676 134.911 132.355 134.6 136.307 132.553L135.387 130.777C131.823 132.623 128.856 132.749 126.339 131.435L125.413 133.207ZM136.307 132.553C139.366 130.968 141.502 128.734 142.62 125.838L140.755 125.117C139.838 127.491 138.08 129.382 135.387 130.777L136.307 132.553ZM142.621 125.837C143.787 122.813 143.24 119.298 141.286 115.415L139.499 116.315C141.321 119.935 141.638 122.828 140.755 125.118L142.621 125.837ZM139.933 114.977L129.961 120.143L130.881 121.919L140.853 116.753L139.933 114.977ZM131.309 120.571L129.456 116.994L127.68 117.914L129.533 121.491L131.309 120.571ZM129.028 118.342L143.01 111.099L142.09 109.323L128.108 116.566L129.028 118.342ZM141.662 110.671L150.489 127.71L152.265 126.79L143.438 109.751L141.662 110.671ZM150.917 126.362L148.142 127.799L149.062 129.575L151.837 128.138L150.917 126.362ZM149.349 128.023L146.186 124.465L144.692 125.793L147.854 129.351L149.349 128.023ZM144.473 124.872C143.856 127.188 143.173 128.849 142.456 129.922L144.119 131.033C145.013 129.695 145.765 127.791 146.405 125.386L144.473 124.872ZM142.451 129.931C141.233 131.795 139.257 133.474 136.44 134.933L137.36 136.709C140.382 135.144 142.665 133.26 144.125 131.024L142.451 129.931ZM136.44 134.933C132.879 136.778 129.255 137.203 125.52 136.232L125.017 138.168C129.247 139.267 133.377 138.773 137.36 136.709L136.44 134.933ZM125.587 136.252C121.342 134.825 117.86 131.604 115.177 126.425L113.401 127.345C116.259 132.861 120.096 136.516 124.95 138.148L125.587 136.252ZM115.177 126.425C112.5 121.257 111.82 116.526 112.998 112.175L111.068 111.653C109.729 116.598 110.553 121.847 113.401 127.345L115.177 126.425ZM112.999 112.173C114.109 108.037 116.687 104.91 120.823 102.768L119.903 100.992C115.309 103.372 112.334 106.934 111.067 111.655L112.999 112.173Z" fill="white"/>
<path d="M161.499 81.9846C164.572 80.603 167.496 80.002 170.272 80.1817C174.29 80.4271 177.624 82.5239 180.274 86.4721L175.887 88.4444C174.278 86.2947 172.391 85.0552 170.227 84.7257C168.055 84.3814 165.693 84.7833 163.14 85.9313C160.112 87.2929 158.069 89.5766 157.012 92.7822C155.97 95.9812 156.46 99.8296 158.482 104.328C160.231 108.217 162.509 111.002 165.318 112.684C168.12 114.351 171.45 114.317 175.31 112.581C178.264 111.253 180.322 109.302 181.484 106.727C182.655 104.131 182.401 100.907 180.724 97.0575L170.481 101.663L168.829 97.9889L183.191 91.5313L191.06 109.033L188.21 110.315L185.249 106.587C184.491 108.909 183.676 110.649 182.805 111.808C181.354 113.781 179.13 115.441 176.131 116.79C172.257 118.532 168.36 118.776 164.441 117.522C159.983 115.743 156.519 112.107 154.05 106.615C151.587 101.137 151.112 96.1129 152.626 91.5419C154.058 87.186 157.016 84.0003 161.499 81.9846Z" fill="black"/>
<path d="M170.272 80.1817L170.207 81.1796L170.211 81.1799L170.272 80.1817ZM180.274 86.4721L180.684 87.3841L181.764 86.8984L181.104 85.9148L180.274 86.4721ZM175.887 88.4444L175.087 89.0436L175.567 89.685L176.297 89.3564L175.887 88.4444ZM170.227 84.7257L170.07 85.7134L170.076 85.7143L170.227 84.7257ZM157.012 92.7822L156.062 92.469L156.061 92.4724L157.012 92.7822ZM165.318 112.684L164.804 113.542L164.806 113.543L165.318 112.684ZM181.484 106.727L182.396 107.138L182.396 107.138L181.484 106.727ZM180.724 97.0575L181.64 96.6581L181.236 95.7306L180.313 96.1455L180.724 97.0575ZM170.481 101.663L169.569 102.073L169.979 102.985L170.891 102.575L170.481 101.663ZM168.829 97.9889L168.419 97.0768L167.507 97.4869L167.917 98.399L168.829 97.9889ZM183.191 91.5313L184.103 91.1212L183.693 90.2092L182.781 90.6193L183.191 91.5313ZM191.06 109.033L191.47 109.945L192.382 109.535L191.972 108.623L191.06 109.033ZM188.21 110.315L187.427 110.936L187.911 111.546L188.62 111.227L188.21 110.315ZM185.249 106.587L186.032 105.965L184.876 104.509L184.298 106.276L185.249 106.587ZM182.805 111.808L182.006 111.207L181.999 111.215L182.805 111.808ZM164.441 117.522L164.071 118.451L164.103 118.463L164.137 118.474L164.441 117.522ZM152.626 91.5419L153.576 91.8563L153.576 91.8542L152.626 91.5419ZM161.909 82.8966C164.864 81.5679 167.625 81.0125 170.207 81.1796L170.336 79.1838C167.367 78.9915 164.279 79.638 161.089 81.0725L161.909 82.8966ZM170.211 81.1799C173.86 81.4027 176.932 83.2872 179.443 87.0293L181.104 85.9148C178.316 81.7606 174.721 79.4515 170.332 79.1836L170.211 81.1799ZM179.864 85.56L175.477 87.5324L176.297 89.3564L180.684 87.3841L179.864 85.56ZM176.688 87.8452C174.959 85.5358 172.857 84.1146 170.377 83.7371L170.076 85.7143C171.925 85.9957 173.597 87.0536 175.087 89.0436L176.688 87.8452ZM170.383 83.7381C167.973 83.356 165.412 83.8131 162.73 85.0193L163.55 86.8434C165.974 85.7535 168.137 85.4069 170.07 85.7134L170.383 83.7381ZM162.73 85.0193C159.441 86.4981 157.205 89.0019 156.062 92.469L157.962 93.0954C158.932 90.1512 160.782 88.0877 163.55 86.8434L162.73 85.0193ZM156.061 92.4724C154.913 95.9974 155.492 100.117 157.57 104.738L159.394 103.917C157.427 99.5424 157.027 95.9649 157.963 93.092L156.061 92.4724ZM157.57 104.738C159.377 108.757 161.774 111.728 164.804 113.542L165.832 111.826C163.245 110.277 161.084 107.676 159.394 103.917L157.57 104.738ZM164.806 113.543C167.97 115.425 171.661 115.318 175.72 113.493L174.9 111.669C171.239 113.315 168.269 113.277 165.829 111.825L164.806 113.543ZM175.72 113.493C178.862 112.081 181.118 109.968 182.396 107.138L180.573 106.315C179.526 108.635 177.666 110.426 174.9 111.669L175.72 113.493ZM182.396 107.138C183.728 104.182 183.376 100.643 181.64 96.6581L179.807 97.457C181.426 101.172 181.581 104.079 180.573 106.316L182.396 107.138ZM180.313 96.1455L170.071 100.751L170.891 102.575L181.134 97.9695L180.313 96.1455ZM171.393 101.253L169.741 97.5788L167.917 98.399L169.569 102.073L171.393 101.253ZM169.239 98.9009L183.601 92.4433L182.781 90.6193L168.419 97.0768L169.239 98.9009ZM182.279 91.9414L190.148 109.443L191.972 108.623L184.103 91.1212L182.279 91.9414ZM190.65 108.121L187.8 109.402L188.62 111.227L191.47 109.945L190.65 108.121ZM188.993 109.693L186.032 105.965L184.466 107.209L187.427 110.936L188.993 109.693ZM184.298 106.276C183.554 108.555 182.781 110.176 182.006 111.207L183.605 112.409C184.571 111.122 185.427 109.262 186.2 106.897L184.298 106.276ZM181.999 111.215C180.68 113.01 178.614 114.577 175.721 115.877L176.541 117.702C179.645 116.306 182.029 114.552 183.611 112.4L181.999 111.215ZM175.721 115.877C172.064 117.522 168.422 117.745 164.746 116.569L164.137 118.474C168.299 119.806 172.45 119.541 176.541 117.702L175.721 115.877ZM164.812 116.593C160.652 114.933 157.353 111.524 154.962 106.205L153.138 107.025C155.685 112.691 159.314 116.553 164.071 118.451L164.812 116.593ZM154.962 106.205C152.575 100.897 152.159 96.1347 153.576 91.8563L151.677 91.2275C150.066 96.091 150.599 101.378 153.138 107.025L154.962 106.205ZM153.576 91.8542C154.914 87.7861 157.662 84.8064 161.909 82.8966L161.089 81.0725C156.37 83.1941 153.203 86.586 151.676 91.2295L153.576 91.8542Z" fill="white"/>
<path d="M190.175 70.7282L194.727 68.8949L208.125 102.162L203.573 103.996L190.175 70.7282Z" fill="black"/>
<path d="M190.175 70.7282L189.801 69.8006L188.873 70.1742L189.247 71.1017L190.175 70.7282ZM194.727 68.8949L195.654 68.5213L195.281 67.5937L194.353 67.9673L194.727 68.8949ZM208.125 102.162L208.499 103.09L209.426 102.716L209.053 101.789L208.125 102.162ZM203.573 103.996L202.645 104.369L203.019 105.297L203.947 104.923L203.573 103.996ZM190.548 71.6558L195.1 69.8225L194.353 67.9673L189.801 69.8006L190.548 71.6558ZM193.799 69.2685L207.197 102.536L209.053 101.789L195.654 68.5213L193.799 69.2685ZM207.751 101.235L203.199 103.068L203.947 104.923L208.499 103.09L207.751 101.235ZM204.501 103.622L191.102 70.3546L189.247 71.1017L202.645 104.369L204.501 103.622Z" fill="white"/>
<path d="M208.252 63.5389L232.847 54.6627L234.338 58.7963L214.199 66.0646L217.895 76.3067L236.519 69.5854L237.928 73.4893L219.304 80.2106L223.431 91.6469L243.915 84.2542L245.366 88.273L220.427 97.2735L208.252 63.5389Z" fill="black"/>
<path d="M208.252 63.5389L207.912 62.5982L206.972 62.9377L207.311 63.8783L208.252 63.5389ZM232.847 54.6627L233.787 54.3233L233.448 53.3826L232.507 53.7221L232.847 54.6627ZM234.338 58.7963L234.678 59.7369L235.619 59.3975L235.279 58.4568L234.338 58.7963ZM214.199 66.0646L213.859 65.124L212.919 65.4635L213.258 66.4041L214.199 66.0646ZM217.895 76.3067L216.954 76.6462L217.294 77.5868L218.235 77.2473L217.895 76.3067ZM236.519 69.5854L237.46 69.2459L237.12 68.3053L236.18 68.6448L236.519 69.5854ZM237.928 73.4893L238.268 74.4299L239.208 74.0905L238.869 73.1498L237.928 73.4893ZM219.304 80.2106L218.965 79.27L218.024 79.6095L218.363 80.5501L219.304 80.2106ZM223.431 91.6469L222.491 91.9863L222.83 92.927L223.771 92.5875L223.431 91.6469ZM243.915 84.2542L244.856 83.9148L244.517 82.9742L243.576 83.3136L243.915 84.2542ZM245.366 88.273L245.705 89.2136L246.646 88.8742L246.306 87.9335L245.366 88.273ZM220.427 97.2735L219.486 97.6129L219.825 98.5535L220.766 98.2141L220.427 97.2735ZM208.591 64.4795L233.186 55.6033L232.507 53.7221L207.912 62.5982L208.591 64.4795ZM231.906 55.0022L233.398 59.1358L235.279 58.4568L233.787 54.3233L231.906 55.0022ZM233.999 57.8557L213.859 65.124L214.538 67.0052L234.678 59.7369L233.999 57.8557ZM213.258 66.4041L216.954 76.6462L218.836 75.9672L215.139 65.7252L213.258 66.4041ZM218.235 77.2473L236.859 70.526L236.18 68.6448L217.556 75.3661L218.235 77.2473ZM235.579 69.9248L236.987 73.8288L238.869 73.1498L237.46 69.2459L235.579 69.9248ZM237.589 72.5487L218.965 79.27L219.643 81.1513L238.268 74.4299L237.589 72.5487ZM218.363 80.5501L222.491 91.9863L224.372 91.3074L220.245 79.8712L218.363 80.5501ZM223.771 92.5875L244.255 85.1949L243.576 83.3136L223.092 90.7063L223.771 92.5875ZM242.975 84.5937L244.425 88.6125L246.306 87.9335L244.856 83.9148L242.975 84.5937ZM245.026 87.3324L220.087 96.3328L220.766 98.2141L245.705 89.2136L245.026 87.3324ZM221.367 96.934L209.192 63.1994L207.311 63.8783L219.486 97.6129L221.367 96.934Z" fill="white"/>
<path d="M285.335 55.7547C287.53 55.1439 289.14 54.2226 290.166 52.9911C291.208 51.7552 291.41 49.9926 290.773 47.7033C290.088 45.2415 288.727 43.8124 286.691 43.4161C285.603 43.2119 284.26 43.3323 282.66 43.7773L271.23 46.9583L274.515 58.7655L285.335 55.7547ZM265.43 44.2388L281.424 39.7881C284.058 39.055 286.337 38.8349 288.26 39.1276C291.915 39.6983 294.295 41.9672 295.399 45.9343C295.975 48.0041 296.015 49.8175 295.52 51.3747C295.039 52.9274 294.142 54.3175 292.828 55.5448C294.329 55.7183 295.541 56.1582 296.464 56.8643C297.403 57.5661 298.191 58.9096 298.828 60.8949L300.282 65.4826C300.695 66.7866 301.078 67.7361 301.429 68.331C302.017 69.3501 302.715 69.916 303.524 70.0289L303.74 70.8051L298.001 72.4021C297.761 72.1478 297.528 71.7986 297.304 71.3543C297.079 70.9101 296.747 70.0225 296.309 68.6914L294.423 63.0075C293.685 60.7801 292.425 59.5004 290.643 59.1684C289.632 58.9937 288.169 59.1726 286.256 59.7049L275.602 62.6699L279.725 77.4877L275.045 78.7902L265.43 44.2388Z" fill="black"/>
<path d="M290.166 52.9911L289.401 52.3467L289.398 52.3511L290.166 52.9911ZM286.691 43.4161L286.882 42.4345L286.875 42.4333L286.691 43.4161ZM271.23 46.9583L270.961 45.9949L269.998 46.263L270.266 47.2264L271.23 46.9583ZM274.515 58.7655L273.552 59.0336L273.82 59.997L274.783 59.7289L274.515 58.7655ZM265.43 44.2388L265.162 43.2754L264.198 43.5435L264.466 44.5069L265.43 44.2388ZM288.26 39.1276L288.414 38.1395L288.41 38.139L288.26 39.1276ZM295.52 51.3747L294.567 51.0712L294.564 51.0792L295.52 51.3747ZM292.828 55.5448L292.145 54.8139L290.565 56.2898L292.713 56.5382L292.828 55.5448ZM296.464 56.8643L295.857 57.6586L295.866 57.6652L296.464 56.8643ZM298.828 60.8949L299.781 60.5927L299.78 60.5894L298.828 60.8949ZM300.282 65.4826L299.328 65.7847L299.329 65.7849L300.282 65.4826ZM301.429 68.331L302.295 67.8314L302.29 67.8224L301.429 68.331ZM303.524 70.0289L304.487 69.7608L304.311 69.1292L303.662 69.0385L303.524 70.0289ZM303.74 70.8051L304.008 71.7685L304.971 71.5004L304.703 70.537L303.74 70.8051ZM298.001 72.4021L297.273 73.0881L297.687 73.5274L298.269 73.3655L298.001 72.4021ZM296.309 68.6914L297.259 68.3789L297.258 68.3765L296.309 68.6914ZM294.423 63.0075L293.474 63.322L293.474 63.3224L294.423 63.0075ZM290.643 59.1684L290.827 58.1852L290.813 58.183L290.643 59.1684ZM275.602 62.6699L275.334 61.7065L274.37 61.9746L274.638 62.938L275.602 62.6699ZM279.725 77.4877L279.993 78.4511L280.957 78.183L280.689 77.2196L279.725 77.4877ZM275.045 78.7902L274.081 79.0583L274.349 80.0217L275.313 79.7536L275.045 78.7902ZM285.603 56.7181C287.914 56.0749 289.734 55.0719 290.934 53.6311L289.398 52.3511C288.546 53.3734 287.145 54.2128 285.067 54.7913L285.603 56.7181ZM290.931 53.6355C292.273 52.0426 292.417 49.8837 291.736 47.4352L289.809 47.9714C290.402 50.1015 290.142 51.4679 289.401 52.3467L290.931 53.6355ZM291.736 47.4352C290.978 44.7103 289.383 42.9214 286.882 42.4345L286.5 44.3977C288.071 44.7035 289.197 45.7727 289.809 47.9714L291.736 47.4352ZM286.875 42.4333C285.581 42.1902 284.072 42.3466 282.392 42.814L282.929 44.7407C284.448 44.3179 285.625 44.2335 286.506 44.3989L286.875 42.4333ZM282.392 42.814L270.961 45.9949L271.498 47.9217L282.929 44.7407L282.392 42.814ZM270.266 47.2264L273.552 59.0336L275.479 58.4974L272.193 46.6902L270.266 47.2264ZM274.783 59.7289L285.603 56.7181L285.067 54.7913L274.247 57.8021L274.783 59.7289ZM265.698 45.2022L281.692 40.7515L281.156 38.8247L265.162 43.2754L265.698 45.2022ZM281.692 40.7515C284.241 40.042 286.37 39.8515 288.109 40.1162L288.41 38.139C286.303 37.8182 283.875 38.0681 281.156 38.8247L281.692 40.7515ZM288.105 40.1156C289.758 40.3736 291.072 41.0045 292.096 41.9811C293.127 42.9633 293.92 44.3492 294.436 46.2024L296.363 45.6662C295.775 43.5523 294.826 41.8202 293.476 40.5335C292.121 39.2412 290.417 38.4522 288.414 38.1395L288.105 40.1156ZM294.436 46.2024C294.976 48.1427 294.988 49.7496 294.567 51.0712L296.472 51.6781C297.043 49.8855 296.975 47.8655 296.363 45.6662L294.436 46.2024ZM294.564 51.0792C294.141 52.4483 293.346 53.6926 292.145 54.8139L293.511 56.2756C294.938 54.9424 295.938 53.4065 296.475 51.6701L294.564 51.0792ZM292.713 56.5382C294.088 56.6971 295.114 57.0903 295.857 57.6585L297.072 56.0701C295.969 55.2261 294.571 54.7396 292.943 54.5514L292.713 56.5382ZM295.866 57.6652C296.552 58.1783 297.259 59.2775 297.875 61.2004L299.78 60.5894C299.123 58.5418 298.254 56.9539 297.063 56.0634L295.866 57.6652ZM297.874 61.197L299.328 65.7847L301.235 65.1804L299.781 60.5927L297.874 61.197ZM299.329 65.7849C299.747 67.1053 300.157 68.1435 300.568 68.8396L302.29 67.8224C301.999 67.3286 301.643 66.4679 301.235 65.1803L299.329 65.7849ZM300.563 68.8305C301.234 69.9935 302.154 70.8474 303.385 71.0193L303.662 69.0385C303.276 68.9847 302.8 68.7066 302.295 67.8314L300.563 68.8305ZM302.56 70.297L302.776 71.0732L304.703 70.537L304.487 69.7608L302.56 70.297ZM303.471 69.8417L297.732 71.4387L298.269 73.3655L304.008 71.7685L303.471 69.8417ZM298.728 71.7162C298.576 71.5543 298.394 71.2943 298.196 70.9025L296.411 71.8062C296.663 72.3028 296.946 72.7414 297.273 73.0881L298.728 71.7162ZM298.196 70.9025C298.01 70.5359 297.7 69.7186 297.259 68.3789L295.359 69.004C295.794 70.3264 296.147 71.2844 296.411 71.8062L298.196 70.9025ZM297.258 68.3765L295.372 62.6926L293.474 63.3224L295.36 69.0063L297.258 68.3765ZM295.372 62.6929C294.559 60.238 293.074 58.6041 290.827 58.1853L290.46 60.1515C291.776 60.3967 292.811 61.3221 293.474 63.322L295.372 62.6929ZM290.813 58.183C289.575 57.9692 287.935 58.1998 285.988 58.7415L286.525 60.6683C288.404 60.1454 289.688 60.0183 290.473 60.1538L290.813 58.183ZM285.988 58.7415L275.334 61.7065L275.87 63.6333L286.525 60.6683L285.988 58.7415ZM274.638 62.938L278.762 77.7558L280.689 77.2196L276.565 62.4018L274.638 62.938ZM279.457 76.5243L274.777 77.8268L275.313 79.7536L279.993 78.4511L279.457 76.5243ZM276.008 78.5221L266.393 43.9707L264.466 44.5069L274.081 79.0583L276.008 78.5221Z" fill="white"/>
<path d="M307.349 33.0122L332.864 27.2957L333.825 31.584L312.932 36.2649L315.312 46.8902L334.633 42.5615L335.54 46.6115L316.219 50.9402L318.877 62.8043L340.128 58.0433L341.062 62.2124L315.19 68.0089L307.349 33.0122Z" fill="black"/>
<path d="M307.349 33.0122L307.13 32.0364L306.155 32.255L306.373 33.2308L307.349 33.0122ZM332.864 27.2957L333.84 27.0771L333.621 26.1013L332.645 26.3199L332.864 27.2957ZM333.825 31.584L334.043 32.5598L335.019 32.3412L334.801 31.3653L333.825 31.584ZM312.932 36.2649L312.713 35.2891L311.737 35.5077L311.956 36.4836L312.932 36.2649ZM315.312 46.8902L314.336 47.1088L314.555 48.0846L315.531 47.866L315.312 46.8902ZM334.633 42.5615L335.609 42.3429L335.39 41.3671L334.414 41.5857L334.633 42.5615ZM335.54 46.6115L335.759 47.5873L336.735 47.3687L336.516 46.3929L335.54 46.6115ZM316.219 50.9402L316.001 49.9644L315.025 50.183L315.244 51.1588L316.219 50.9402ZM318.877 62.8043L317.902 63.0229L318.12 63.9987L319.096 63.7801L318.877 62.8043ZM340.128 58.0433L341.104 57.8246L340.885 56.8488L339.909 57.0674L340.128 58.0433ZM341.062 62.2124L341.281 63.1882L342.257 62.9695L342.038 61.9937L341.062 62.2124ZM315.19 68.0089L314.214 68.2275L314.433 69.2033L315.408 68.9847L315.19 68.0089ZM307.568 33.988L333.083 28.2715L332.645 26.3199L307.13 32.0364L307.568 33.988ZM331.888 27.5144L332.849 31.8026L334.801 31.3653L333.84 27.0771L331.888 27.5144ZM333.606 30.6082L312.713 35.2891L313.15 37.2407L334.043 32.5598L333.606 30.6082ZM311.956 36.4836L314.336 47.1088L316.288 46.6716L313.907 36.0463L311.956 36.4836ZM315.531 47.866L334.852 43.5373L334.414 41.5857L315.093 45.9144L315.531 47.866ZM333.657 42.7801L334.564 46.8301L336.516 46.3929L335.609 42.3429L333.657 42.7801ZM335.322 45.6357L316.001 49.9644L316.438 51.916L335.759 47.5873L335.322 45.6357ZM315.244 51.1588L317.902 63.0229L319.853 62.5857L317.195 50.7216L315.244 51.1588ZM319.096 63.7801L340.347 59.0191L339.909 57.0674L318.659 61.8285L319.096 63.7801ZM339.152 58.2619L340.086 62.431L342.038 61.9937L341.104 57.8246L339.152 58.2619ZM340.843 61.2366L314.971 67.033L315.408 68.9847L341.281 63.1882L340.843 61.2366ZM316.166 67.7902L308.325 32.7936L306.373 33.2308L314.214 68.2275L316.166 67.7902Z" fill="white"/>
<path d="M353.723 48.0007C354.182 49.986 354.936 51.532 355.987 52.6387C357.98 54.7056 360.981 55.3923 364.99 54.6987C366.786 54.388 368.378 53.8484 369.765 53.08C372.447 51.5918 373.567 49.5647 373.123 46.9987C372.79 45.0741 371.951 43.8069 370.607 43.197C369.249 42.606 367.22 42.2385 364.52 42.0945L359.545 41.8401C356.296 41.6754 353.948 41.2804 352.502 40.6551C350.001 39.568 348.497 37.557 347.989 34.622C347.44 31.4465 348.088 28.6504 349.933 26.2335C351.778 23.8166 354.713 22.26 358.738 21.5637C362.443 20.9228 365.742 21.2772 368.635 22.6268C371.541 23.9576 373.334 26.5876 374.013 30.5169L369.515 31.295C368.947 29.4442 368.182 28.0815 367.222 27.2071C365.443 25.6152 362.806 25.1216 359.31 25.7264C356.487 26.2147 354.561 27.159 353.531 28.5594C352.502 29.9598 352.123 31.4459 352.395 33.0176C352.694 34.7497 353.635 35.8919 355.217 36.4441C356.252 36.7936 358.504 37.0648 361.973 37.2575L367.125 37.531C369.608 37.6629 371.582 38.0896 373.045 38.8111C375.576 40.0747 377.113 42.2781 377.657 45.4215C378.334 49.3348 377.39 52.3803 374.827 54.5581C372.28 56.7331 369.121 58.1466 365.353 58.7985C360.958 59.5587 357.324 59.0311 354.45 57.2158C351.578 55.4165 349.836 52.6042 349.224 48.7789L353.723 48.0007Z" fill="black"/>
<path d="M353.723 48.0007L354.697 47.7754L354.484 46.8542L353.552 47.0154L353.723 48.0007ZM355.987 52.6387L355.261 53.3272L355.267 53.3328L355.987 52.6387ZM369.765 53.08L370.249 53.9547L370.25 53.9545L369.765 53.08ZM370.607 43.197L371.02 42.2864L371.013 42.2832L371.006 42.2802L370.607 43.197ZM364.52 42.0945L364.573 41.0959L364.571 41.0958L364.52 42.0945ZM359.545 41.8401L359.596 40.8414L359.596 40.8413L359.545 41.8401ZM352.502 40.6551L352.103 41.5722L352.105 41.5729L352.502 40.6551ZM349.933 26.2335L350.728 26.8402L349.933 26.2335ZM368.635 22.6268L368.212 23.533L368.218 23.536L368.635 22.6268ZM374.013 30.5169L374.184 31.5022L375.169 31.3318L374.999 30.3464L374.013 30.5169ZM369.515 31.295L368.559 31.5884L368.817 32.4306L369.685 32.2804L369.515 31.295ZM367.222 27.2071L367.895 26.4676L367.889 26.462L367.222 27.2071ZM355.217 36.4441L354.888 37.3883L354.897 37.3915L355.217 36.4441ZM361.973 37.2575L361.918 38.256L361.92 38.2561L361.973 37.2575ZM367.125 37.531L367.178 36.5324L367.178 36.5324L367.125 37.531ZM373.045 38.8111L373.491 37.9164L373.487 37.9143L373.045 38.8111ZM374.827 54.5581L374.18 53.796L374.178 53.7976L374.827 54.5581ZM354.45 57.2158L354.984 56.3703L354.981 56.3684L354.45 57.2158ZM349.224 48.7789L349.054 47.7935L348.081 47.9618L348.237 48.9369L349.224 48.7789ZM352.748 48.226C353.235 50.3287 354.054 52.0546 355.262 53.3271L356.712 51.9503C355.819 51.0094 355.129 49.6434 354.697 47.7754L352.748 48.226ZM355.267 53.3328C357.577 55.7289 360.972 56.4087 365.161 55.6841L364.82 53.7134C360.99 54.3759 358.382 53.6824 356.707 51.9446L355.267 53.3328ZM365.161 55.6841C367.051 55.3571 368.751 54.7848 370.249 53.9547L369.28 52.2053C368.004 52.9121 366.522 53.4189 364.82 53.7134L365.161 55.6841ZM370.25 53.9545C371.703 53.1482 372.816 52.1503 373.492 50.927C374.175 49.6896 374.364 48.3058 374.108 46.8282L372.138 47.1691C372.326 48.2576 372.177 49.1704 371.741 49.9601C371.297 50.7639 370.509 51.5237 369.28 52.2055L370.25 53.9545ZM374.108 46.8282C373.739 44.6941 372.76 43.0756 371.02 42.2864L370.194 44.1077C371.143 44.5382 371.841 45.4541 372.138 47.1691L374.108 46.8282ZM371.006 42.2802C369.483 41.6171 367.311 41.2419 364.573 41.0959L364.466 43.0931C367.13 43.2351 369.016 43.5949 370.208 44.1139L371.006 42.2802ZM364.571 41.0958L359.596 40.8414L359.494 42.8387L364.468 43.0932L364.571 41.0958ZM359.596 40.8413C356.366 40.6776 354.171 40.2872 352.899 39.7372L352.105 41.5729C353.725 42.2735 356.225 42.6731 359.494 42.8388L359.596 40.8413ZM352.9 39.738C350.741 38.7992 349.431 37.0911 348.975 34.4516L347.004 34.7925C347.563 38.0229 349.261 40.3368 352.103 41.5722L352.9 39.738ZM348.975 34.4516C348.47 31.5319 349.063 29.0214 350.728 26.8402L349.138 25.6267C347.113 28.2793 346.41 31.3612 347.004 34.7925L348.975 34.4516ZM350.728 26.8402C352.373 24.6843 355.045 23.2174 358.909 22.549L358.568 20.5783C354.381 21.3026 351.182 22.9489 349.138 25.6267L350.728 26.8402ZM358.909 22.549C362.449 21.9366 365.535 22.2842 368.212 23.533L369.057 21.7206C365.948 20.2701 362.437 19.909 358.568 20.5783L358.909 22.549ZM368.218 23.536C370.749 24.6951 372.389 26.9923 373.028 30.6873L374.999 30.3464C374.278 26.1829 372.332 23.2201 369.051 21.7176L368.218 23.536ZM373.843 29.5315L369.344 30.3097L369.685 32.2804L374.184 31.5022L373.843 29.5315ZM370.471 31.0017C369.874 29.0576 369.038 27.5079 367.895 26.4676L366.549 27.9466C367.327 28.6552 368.019 29.8307 368.559 31.5884L370.471 31.0017ZM367.889 26.462C365.789 24.5822 362.786 24.1103 359.139 24.741L359.48 26.7118C362.826 26.133 365.098 26.6482 366.555 27.9522L367.889 26.462ZM359.139 24.741C356.218 25.2464 353.981 26.2588 352.726 27.9671L354.337 29.1518C355.14 28.0592 356.756 27.183 359.48 26.7118L359.139 24.741ZM352.726 27.9671C351.551 29.5649 351.087 31.3227 351.409 33.1881L353.38 32.8472C353.159 31.5691 353.452 30.3548 354.337 29.1518L352.726 27.9671ZM351.409 33.1881C351.583 34.1929 351.953 35.0809 352.553 35.8091C353.155 36.5395 353.947 37.0599 354.888 37.3882L355.547 35.4999C354.905 35.276 354.436 34.9492 354.097 34.5375C353.756 34.1235 353.506 33.5744 353.38 32.8472L351.409 33.1881ZM354.897 37.3915C356.084 37.7924 358.478 38.0649 361.918 38.256L362.029 36.2591C358.53 36.0646 356.42 35.7948 355.537 35.4966L354.897 37.3915ZM361.92 38.2561L367.072 38.5296L367.178 36.5324L362.026 36.2589L361.92 38.2561ZM367.071 38.5296C369.484 38.6577 371.308 39.0694 372.602 39.708L373.487 37.9143C371.856 37.1098 369.733 36.6681 367.178 36.5324L367.071 38.5296ZM372.598 39.7059C374.805 40.8077 376.174 42.7159 376.671 45.592L378.642 45.2511C378.052 41.8403 376.346 39.3416 373.491 37.9164L372.598 39.7059ZM376.671 45.592C377.301 49.231 376.42 51.8924 374.18 53.796L375.474 55.3202C378.361 52.8682 379.367 49.4386 378.642 45.2511L376.671 45.592ZM374.178 53.7976C371.785 55.8402 368.8 57.1874 365.182 57.8132L365.523 59.7839C369.443 59.1058 372.774 57.626 375.476 55.3186L374.178 53.7976ZM365.182 57.8132C360.954 58.5446 357.59 58.0165 354.984 56.3703L353.916 58.0613C357.058 60.0457 360.962 60.5728 365.523 59.7839L365.182 57.8132ZM354.981 56.3684C352.39 54.7451 350.785 52.2067 350.212 48.6209L348.237 48.9369C348.887 53.0018 350.766 56.0879 353.919 58.0632L354.981 56.3684ZM349.395 49.7643L353.893 48.9861L353.552 47.0154L349.054 47.7935L349.395 49.7643Z" fill="white"/>
<path d="M401.322 15.2336C405.83 14.6888 409.472 15.4536 412.247 17.5282C415.023 19.6027 416.731 22.1342 417.37 25.1226L412.668 25.6909C411.858 23.4609 410.572 21.7719 408.81 20.6241C407.064 19.4744 404.753 19.0733 401.877 19.4209C398.371 19.8447 395.684 21.4235 393.818 24.1575C391.966 26.8733 391.347 30.7762 391.962 35.8661C392.466 40.035 393.845 43.303 396.098 45.6701C398.366 48.0192 401.431 48.9604 405.292 48.4936C408.847 48.064 411.389 46.3715 412.917 43.4161C413.729 41.8589 414.236 39.8795 414.437 37.4779L419.139 36.9096C419.172 40.7091 418.162 44.0199 416.11 46.8419C413.651 50.2376 410.022 52.2255 405.223 52.8055C401.087 53.3054 397.461 52.473 394.347 50.3083C390.247 47.443 387.778 42.5525 386.942 35.6367C386.308 30.3852 387.177 25.911 389.55 22.2141C392.114 18.1991 396.038 15.8722 401.322 15.2336Z" fill="black"/>
<path d="M417.37 25.1226L417.49 26.1154L418.578 25.984L418.348 24.9133L417.37 25.1226ZM412.668 25.6909L411.728 26.0325L412 26.779L412.788 26.6837L412.668 25.6909ZM408.81 20.6241L408.26 21.4593L408.264 21.462L408.81 20.6241ZM393.818 24.1575L392.992 23.5937L392.992 23.594L393.818 24.1575ZM396.098 45.6701L395.374 46.3597L395.379 46.3647L396.098 45.6701ZM412.917 43.4161L412.03 42.9538L412.029 42.9568L412.917 43.4161ZM414.437 37.4779L414.317 36.4851L413.509 36.5828L413.441 37.3943L414.437 37.4779ZM419.139 36.9096L420.139 36.9009L420.13 35.7826L419.019 35.9168L419.139 36.9096ZM416.11 46.8419L415.301 46.2537L415.3 46.2555L416.11 46.8419ZM394.347 50.3083L393.774 51.128L393.776 51.1294L394.347 50.3083ZM389.55 22.2141L390.392 22.7543L390.393 22.7524L389.55 22.2141ZM401.442 16.2264C405.777 15.7025 409.137 16.4517 411.649 18.3291L412.846 16.7272C409.807 14.4555 405.884 13.675 401.202 14.2409L401.442 16.2264ZM411.649 18.3291C414.258 20.2795 415.81 22.6119 416.393 25.332L418.348 24.9133C417.651 21.6565 415.788 18.9259 412.846 16.7272L411.649 18.3291ZM417.25 24.1299L412.548 24.6982L412.788 26.6837L417.49 26.1154L417.25 24.1299ZM413.608 25.3493C412.734 22.9429 411.322 21.0674 409.356 19.7863L408.264 21.462C409.821 22.4765 410.982 23.9788 411.728 26.0325L413.608 25.3493ZM409.36 19.789C407.352 18.4665 404.778 18.063 401.757 18.4281L401.997 20.4137C404.729 20.0836 406.776 20.4822 408.26 21.4592L409.36 19.789ZM401.757 18.4281C397.986 18.8839 395.033 20.6042 392.992 23.5937L394.644 24.7213C396.336 22.2429 398.755 20.8055 401.997 20.4137L401.757 18.4281ZM392.992 23.594C390.944 26.5958 390.341 30.7841 390.97 35.9861L392.955 35.7461C392.353 30.7683 392.987 27.1508 394.644 24.7209L392.992 23.594ZM390.97 35.9861C391.492 40.3075 392.934 43.7971 395.374 46.3596L396.823 44.9807C394.755 42.8089 393.44 39.7624 392.955 35.7461L390.97 35.9861ZM395.379 46.3647C397.907 48.9837 401.306 49.9826 405.412 49.4864L405.172 47.5008C401.555 47.9381 398.825 47.0547 396.818 44.9756L395.379 46.3647ZM405.412 49.4864C409.266 49.0206 412.112 47.1503 413.805 43.8754L412.029 42.9568C410.666 45.5926 408.428 47.1073 405.172 47.5008L405.412 49.4864ZM413.804 43.8784C414.695 42.1684 415.225 40.0493 415.434 37.5615L413.441 37.3943C413.246 39.7097 412.763 41.5493 412.03 42.9538L413.804 43.8784ZM414.557 38.4707L419.259 37.9024L419.019 35.9168L414.317 36.4851L414.557 38.4707ZM418.139 36.9183C418.171 40.5236 417.216 43.6206 415.301 46.2537L416.919 47.4301C419.109 44.4192 420.174 40.8946 420.139 36.9009L418.139 36.9183ZM415.3 46.2555C413.03 49.3902 409.672 51.2605 405.103 51.8127L405.343 53.7983C410.373 53.1904 414.272 51.085 416.92 47.4284L415.3 46.2555ZM405.103 51.8127C401.184 52.2864 397.81 51.4977 394.918 49.4872L393.776 51.1294C397.113 53.4484 400.989 54.3245 405.343 53.7983L405.103 51.8127ZM394.92 49.4886C391.133 46.8424 388.751 42.2649 387.935 35.5167L385.95 35.7567C386.806 42.8401 389.36 48.0437 393.774 51.128L394.92 49.4886ZM387.935 35.5167C387.322 30.4471 388.168 26.2175 390.391 22.7543L388.708 21.6739C386.185 25.6045 385.293 30.3232 385.95 35.7567L387.935 35.5167ZM390.393 22.7524C392.776 19.0208 396.415 16.8339 401.442 16.2264L401.202 14.2409C395.661 14.9106 391.452 17.3774 388.707 21.6759L390.393 22.7524Z" fill="white"/>
<path d="M435.002 12.8057L436.495 34.9233C436.67 37.5216 437.303 39.6485 438.394 41.3041C440.014 43.8048 442.538 44.9396 445.964 44.7083C450.073 44.4311 452.771 42.8379 454.059 39.9288C454.752 38.3487 455.011 36.2676 454.837 33.6855L453.344 11.5679L458.265 11.2358L459.621 31.3317C459.918 35.7325 459.554 39.1584 458.528 41.6093C456.644 46.0757 452.681 48.5128 446.64 48.9205C440.599 49.3281 436.353 47.445 433.902 43.2712C432.556 40.9802 431.735 37.6344 431.438 33.2336L430.082 13.1377L435.002 12.8057Z" fill="black"/>
<path d="M435.002 12.8057L436 12.7383L435.933 11.7406L434.935 11.8079L435.002 12.8057ZM438.394 41.3041L439.233 40.7602L439.229 40.754L438.394 41.3041ZM454.059 39.9288L454.974 40.3337L454.975 40.3303L454.059 39.9288ZM453.344 11.5679L453.277 10.5702L452.279 10.6375L452.347 11.6352L453.344 11.5679ZM458.265 11.2358L459.263 11.1685L459.195 10.1708L458.197 10.2381L458.265 11.2358ZM458.528 41.6093L459.45 41.998L459.451 41.9953L458.528 41.6093ZM430.082 13.1377L430.014 12.14L429.017 12.2073L429.084 13.205L430.082 13.1377ZM434.005 12.873L435.497 34.9906L437.493 34.856L436 12.7383L434.005 12.873ZM435.497 34.9906C435.681 37.7088 436.348 40.0161 437.558 41.8542L439.229 40.754C438.258 39.2809 437.66 37.3344 437.493 34.856L435.497 34.9906ZM437.554 41.8479C439.406 44.7054 442.309 45.9573 446.032 45.7061L445.897 43.7106C442.766 43.9219 440.622 42.9043 439.233 40.7603L437.554 41.8479ZM446.032 45.7061C450.383 45.4124 453.489 43.6853 454.974 40.3337L453.145 39.5239C452.053 41.9905 449.763 43.4498 445.897 43.7106L446.032 45.7061ZM454.975 40.3303C455.757 38.5474 456.015 36.2871 455.835 33.6182L453.839 33.7529C454.008 36.248 453.747 38.15 453.143 39.5273L454.975 40.3303ZM455.835 33.6182L454.342 11.5006L452.347 11.6352L453.839 33.7529L455.835 33.6182ZM453.412 12.5656L458.332 12.2336L458.197 10.2381L453.277 10.5702L453.412 12.5656ZM457.267 11.3032L458.623 31.3991L460.619 31.2644L459.263 11.1685L457.267 11.3032ZM458.623 31.3991C458.916 35.7348 458.544 38.9804 457.606 41.2233L459.451 41.9953C460.563 39.3364 460.92 35.7302 460.619 31.2644L458.623 31.3991ZM457.607 41.2205C455.908 45.2463 452.349 47.5329 446.573 47.9227L446.707 49.9182C453.013 49.4927 457.379 46.9052 459.45 41.998L457.607 41.2205ZM446.573 47.9227C440.796 48.3125 436.972 46.5243 434.764 42.7647L433.039 43.7776C435.734 48.3658 440.402 50.3437 446.707 49.9182L446.573 47.9227ZM434.764 42.7647C433.533 40.6682 432.728 37.502 432.436 33.1663L430.44 33.3009C430.742 37.7668 431.58 41.2923 433.039 43.7776L434.764 42.7647ZM432.436 33.1663L431.08 13.0704L429.084 13.205L430.44 33.3009L432.436 33.1663ZM430.149 14.1354L435.07 13.8034L434.935 11.8079L430.014 12.14L430.149 14.1354Z" fill="white"/>
<path d="M473.65 10.6211L499.794 10.193L499.866 14.5869L478.458 14.9375L478.636 25.8247L498.433 25.5005L498.501 29.6504L478.704 29.9745L478.903 42.1311L500.677 41.7746L500.747 46.0465L474.237 46.4805L473.65 10.6211Z" fill="black"/>
<path d="M473.65 10.6211L473.633 9.62122L472.634 9.6376L472.65 10.6375L473.65 10.6211ZM499.794 10.193L500.794 10.1766L500.777 9.17676L499.777 9.19314L499.794 10.193ZM499.866 14.5869L499.882 15.5868L500.882 15.5704L500.866 14.5706L499.866 14.5869ZM478.458 14.9375L478.441 13.9376L477.441 13.954L477.458 14.9539L478.458 14.9375ZM478.636 25.8247L477.636 25.8411L477.652 26.8409L478.652 26.8246L478.636 25.8247ZM498.433 25.5005L499.433 25.4842L499.416 24.4843L498.417 24.5007L498.433 25.5005ZM498.501 29.6504L498.517 30.6502L499.517 30.6339L499.501 29.634L498.501 29.6504ZM478.704 29.9745L478.687 28.9747L477.687 28.991L477.704 29.9909L478.704 29.9745ZM478.903 42.1311L477.903 42.1475L477.919 43.1473L478.919 43.131L478.903 42.1311ZM500.677 41.7746L501.677 41.7582L501.661 40.7583L500.661 40.7747L500.677 41.7746ZM500.747 46.0465L500.764 47.0463L501.763 47.03L501.747 46.0301L500.747 46.0465ZM474.237 46.4805L473.237 46.4969L473.254 47.4968L474.253 47.4804L474.237 46.4805ZM473.666 11.621L499.81 11.1929L499.777 9.19314L473.633 9.62122L473.666 11.621ZM498.794 10.2094L498.866 14.6033L500.866 14.5706L500.794 10.1766L498.794 10.2094ZM499.849 13.5871L478.441 13.9376L478.474 15.9374L499.882 15.5868L499.849 13.5871ZM477.458 14.9539L477.636 25.8411L479.636 25.8083L479.457 14.9211L477.458 14.9539ZM478.652 26.8246L498.449 26.5004L498.417 24.5007L478.619 24.8248L478.652 26.8246ZM497.433 25.5169L497.501 29.6667L499.501 29.634L499.433 25.4842L497.433 25.5169ZM498.485 28.6505L478.687 28.9747L478.72 30.9744L498.517 30.6502L498.485 28.6505ZM477.704 29.9909L477.903 42.1475L479.903 42.1147L479.704 29.9582L477.704 29.9909ZM478.919 43.131L500.694 42.7744L500.661 40.7747L478.886 41.1312L478.919 43.131ZM499.677 41.7909L499.747 46.0628L501.747 46.0301L501.677 41.7582L499.677 41.7909ZM500.731 45.0466L474.221 45.4807L474.253 47.4804L500.764 47.0463L500.731 45.0466ZM475.237 46.4642L474.65 10.6047L472.65 10.6375L473.237 46.4969L475.237 46.4642Z" fill="white"/>
<path d="M548.555 10.7643C553.088 11.0301 556.536 12.4306 558.898 14.9658C561.261 17.501 562.491 20.2958 562.589 23.3504L557.861 23.0732C557.46 20.7346 556.494 18.8438 554.965 17.4009C553.452 15.9589 551.249 15.1531 548.357 14.9836C544.831 14.7768 541.907 15.8526 539.584 18.2109C537.278 20.554 535.975 24.2845 535.675 29.4027C535.429 33.5947 536.204 37.0559 538.001 39.7861C539.814 42.5011 542.663 43.9724 546.546 44.2001C550.121 44.4097 552.923 43.1963 554.952 40.5599C556.028 39.172 556.879 37.3143 557.504 34.9869L562.233 35.2641C561.589 39.0089 560.007 42.0872 557.485 44.4991C554.461 47.4033 550.537 48.7139 545.711 48.431C541.551 48.1871 538.132 46.723 535.452 44.0388C531.927 40.4898 530.368 35.2382 530.776 28.284C531.085 23.0033 532.737 18.7551 535.729 15.5394C538.967 12.0445 543.242 10.4528 548.555 10.7643Z" fill="black"/>
<path d="M562.589 23.3504L562.53 24.3487L563.623 24.4128L563.588 23.3184L562.589 23.3504ZM557.861 23.0732L556.875 23.2422L557.009 24.025L557.802 24.0715L557.861 23.0732ZM554.965 17.4009L554.275 18.1248L554.279 18.1283L554.965 17.4009ZM539.584 18.2109L538.871 17.5092L538.871 17.5095L539.584 18.2109ZM538.001 39.7861L537.165 40.3358L537.169 40.3416L538.001 39.7861ZM554.952 40.5599L554.162 39.9473L554.16 39.9499L554.952 40.5599ZM557.504 34.9869L557.563 33.9886L556.75 33.9409L556.539 34.7273L557.504 34.9869ZM562.233 35.2641L563.218 35.4334L563.408 34.3313L562.291 34.2658L562.233 35.2641ZM557.485 44.4991L556.794 43.7764L556.792 43.7779L557.485 44.4991ZM535.452 44.0388L534.743 44.7436L534.745 44.7453L535.452 44.0388ZM535.729 15.5394L536.461 16.2206L536.463 16.2189L535.729 15.5394ZM548.497 11.7626C552.855 12.0182 556.029 13.3532 558.167 15.6475L559.63 14.2841C557.043 11.508 553.321 10.042 548.614 9.76603L548.497 11.7626ZM558.167 15.6475C560.388 18.0309 561.5 20.6022 561.589 23.3825L563.588 23.3184C563.481 19.9895 562.134 16.971 559.63 14.2841L558.167 15.6475ZM562.647 22.3522L557.919 22.0749L557.802 24.0715L562.53 24.3487L562.647 22.3522ZM558.846 22.9043C558.414 20.3807 557.358 18.284 555.651 16.6735L554.279 18.1283C555.631 19.4035 556.506 21.0884 556.875 23.2422L558.846 22.9043ZM555.655 16.6769C553.914 15.0184 551.453 14.1634 548.415 13.9853L548.298 15.9818C551.045 16.1429 552.989 16.8994 554.275 18.1248L555.655 16.6769ZM548.415 13.9853C544.624 13.763 541.411 14.9305 538.871 17.5092L540.296 18.9127C542.402 16.7748 545.038 15.7907 548.298 15.9818L548.415 13.9853ZM538.871 17.5095C536.322 20.0992 534.983 24.1133 534.676 29.3442L536.673 29.4612C536.966 24.4558 538.233 21.0087 540.296 18.9124L538.871 17.5095ZM534.676 29.3442C534.422 33.6896 535.221 37.3802 537.165 40.3358L538.836 39.2365C537.188 36.7316 536.436 33.4998 536.673 29.4612L534.676 29.3442ZM537.169 40.3416C539.191 43.3686 542.359 44.9563 546.487 45.1984L546.604 43.2018C542.967 42.9885 540.437 41.6337 538.832 39.2307L537.169 40.3416ZM546.487 45.1984C550.363 45.4256 553.496 44.0914 555.745 41.1699L554.16 39.9499C552.35 42.3012 549.878 43.3938 546.604 43.2018L546.487 45.1984ZM555.742 41.1726C556.924 39.6485 557.822 37.6573 558.47 35.2464L556.539 34.7273C555.936 36.9712 555.132 38.6954 554.162 39.9473L555.742 41.1726ZM557.446 35.9852L562.174 36.2624L562.291 34.2658L557.563 33.9886L557.446 35.9852ZM561.247 35.0947C560.636 38.6482 559.146 41.526 556.794 43.7764L558.176 45.2218C560.867 42.6484 562.542 39.3696 563.218 35.4334L561.247 35.0947ZM556.792 43.7779C554.001 46.4589 550.364 47.7021 545.769 47.4327L545.652 49.4293C550.71 49.7258 554.922 48.3476 558.177 45.2203L556.792 43.7779ZM545.769 47.4327C541.829 47.2016 538.649 45.8253 536.16 43.3323L534.745 44.7453C537.615 47.6208 541.274 49.1725 545.652 49.4293L545.769 47.4327ZM536.162 43.3341C532.906 40.0564 531.376 35.1281 531.774 28.3425L529.777 28.2254C529.36 35.3482 530.948 40.9232 534.743 44.7436L536.162 43.3341ZM531.774 28.3425C532.073 23.2448 533.658 19.2332 536.461 16.2206L534.997 14.8581C531.815 18.2771 530.098 22.7619 529.777 28.2254L531.774 28.3425ZM536.463 16.2189C539.472 12.9708 543.442 11.4663 548.497 11.7626L548.614 9.76603C543.042 9.43933 538.462 11.1181 534.996 14.8598L536.463 16.2189Z" fill="white"/>
<path d="M576.714 13.8317L581.546 14.3448L578.21 45.7599L596.272 47.678L595.821 51.9266L572.927 49.4955L576.714 13.8317Z" fill="black"/>
<path d="M576.714 13.8317L576.82 12.8373L575.826 12.7317L575.72 13.7261L576.714 13.8317ZM581.546 14.3448L582.54 14.4504L582.646 13.4559L581.651 13.3503L581.546 14.3448ZM578.21 45.7599L577.215 45.6543L577.11 46.6487L578.104 46.7543L578.21 45.7599ZM596.272 47.678L597.267 47.7836L597.372 46.7892L596.378 46.6836L596.272 47.678ZM595.821 51.9266L595.715 52.921L596.71 53.0266L596.815 52.0322L595.821 51.9266ZM572.927 49.4955L571.933 49.3899L571.827 50.3843L572.822 50.4899L572.927 49.4955ZM576.609 14.8261L581.44 15.3392L581.651 13.3503L576.82 12.8373L576.609 14.8261ZM580.551 14.2392L577.215 45.6543L579.204 45.8655L582.54 14.4504L580.551 14.2392ZM578.104 46.7543L596.167 48.6724L596.378 46.6836L578.315 44.7655L578.104 46.7543ZM595.278 47.5724L594.827 51.821L596.815 52.0322L597.267 47.7836L595.278 47.5724ZM595.927 50.9321L573.033 48.5011L572.822 50.4899L595.715 52.921L595.927 50.9321ZM573.922 49.6011L577.709 13.9373L575.72 13.7261L571.933 49.3899L573.922 49.6011Z" fill="white"/>
<path d="M616.118 18.4925L612.739 40.4015C612.342 42.9752 612.494 45.1891 613.197 47.043C614.231 49.8375 616.446 51.4965 619.84 52.02C623.91 52.6477 626.891 51.683 628.784 49.1259C629.805 47.7354 630.513 45.7613 630.908 43.2036L634.287 21.2947L639.161 22.0464L636.091 41.9527C635.418 46.3119 634.314 49.5753 632.777 51.7427C629.962 55.6891 625.562 57.2009 619.578 56.278C613.594 55.3551 609.863 52.5892 608.383 47.9804C607.571 45.4508 607.501 42.0063 608.174 37.6471L611.244 17.7408L616.118 18.4925Z" fill="black"/>
<path d="M616.118 18.4925L617.106 18.645L617.258 17.6567L616.27 17.5042L616.118 18.4925ZM613.197 47.043L614.134 46.6958L614.132 46.6888L613.197 47.043ZM628.784 49.1259L629.588 49.7209L629.59 49.7179L628.784 49.1259ZM634.287 21.2947L634.439 20.3064L633.451 20.154L633.298 21.1423L634.287 21.2947ZM639.161 22.0464L640.149 22.1988L640.301 21.2105L639.313 21.0581L639.161 22.0464ZM632.777 51.7427L633.591 52.3235L633.593 52.321L632.777 51.7427ZM611.244 17.7408L611.396 16.7525L610.408 16.6001L610.255 17.5884L611.244 17.7408ZM615.129 18.3401L611.75 40.249L613.727 40.5539L617.106 18.645L615.129 18.3401ZM611.75 40.249C611.335 42.9415 611.482 45.3389 612.261 47.3972L614.132 46.6888C613.507 45.0392 613.348 43.0089 613.727 40.5539L611.75 40.249ZM612.259 47.3902C613.441 50.5834 616 52.4397 619.687 53.0083L619.992 51.0317C616.891 50.5534 615.021 49.0917 614.134 46.6958L612.259 47.3902ZM619.687 53.0083C623.998 53.6731 627.407 52.6669 629.588 49.7209L627.98 48.5309C626.375 50.699 623.821 51.6223 619.992 51.0317L619.687 53.0083ZM629.59 49.7179C630.742 48.1489 631.488 45.9998 631.896 43.3561L629.919 43.0512C629.538 45.5228 628.868 47.3218 627.978 48.5339L629.59 49.7179ZM631.896 43.3561L635.275 21.4471L633.298 21.1423L629.919 43.0512L631.896 43.3561ZM634.134 22.283L639.008 23.0347L639.313 21.0581L634.439 20.3064L634.134 22.283ZM638.172 21.894L635.102 41.8002L637.079 42.1051L640.149 22.1988L638.172 21.894ZM635.102 41.8002C634.44 46.0951 633.368 49.1809 631.962 51.1644L633.593 52.321C635.26 49.9697 636.397 46.5288 637.079 42.1051L635.102 41.8002ZM631.963 51.1619C629.426 54.7189 625.453 56.1721 619.731 55.2897L619.426 57.2663C625.672 58.2296 630.498 56.6593 633.591 52.3235L631.963 51.1619ZM619.731 55.2897C614.009 54.4072 610.668 51.8261 609.335 47.6748L607.431 48.2861C609.057 53.3524 613.18 56.303 619.426 57.2663L619.731 55.2897ZM609.335 47.6748C608.592 45.3598 608.5 42.0943 609.162 37.7995L607.185 37.4946C606.503 41.9183 606.55 45.5418 607.431 48.2861L609.335 47.6748ZM609.162 37.7995L612.232 17.8933L610.255 17.5884L607.185 37.4946L609.162 37.7995ZM611.091 18.7291L615.965 19.4809L616.27 17.5042L611.396 16.7525L611.091 18.7291Z" fill="white"/>
<path d="M663.979 42.2933C665.987 42.7088 667.607 42.7531 668.838 42.4261C670.773 41.9123 671.976 40.5157 672.447 38.2365C672.922 35.9414 672.31 34.2024 670.61 33.0197C669.65 32.3557 668.134 31.8094 666.062 31.3807L657.575 29.6246L655.324 40.5026L663.979 42.2933ZM662.227 58.8341C665.144 59.4376 667.398 59.0233 668.991 57.591C669.993 56.6847 670.651 55.4745 670.964 53.9604C671.492 51.4102 670.711 49.4371 668.624 48.0411C667.514 47.2964 665.964 46.7179 663.971 46.3057L654.528 44.3517L651.97 56.712L662.227 58.8341ZM653.734 24.6913L668.82 27.8127C672.932 28.6636 675.603 30.496 676.832 33.3099C677.552 34.9714 677.716 36.7505 677.324 38.6471C676.865 40.8626 675.86 42.5493 674.307 43.7073C673.499 44.3212 672.416 44.812 671.06 45.1796C672.72 46.2376 673.907 47.2893 674.621 48.3347C675.882 50.1913 676.234 52.4663 675.677 55.1599C675.209 57.4232 674.076 59.3245 672.278 60.864C669.591 63.1668 665.936 63.84 661.314 62.8836L646.468 59.8117L653.734 24.6913Z" fill="black"/>
<path d="M668.838 42.4261L668.581 41.4596L668.838 42.4261ZM670.61 33.0197L671.181 32.1988L671.179 32.1973L670.61 33.0197ZM657.575 29.6246L657.778 28.6454L656.798 28.4427L656.596 29.422L657.575 29.6246ZM655.324 40.5026L654.345 40.3L654.142 41.2792L655.122 41.4819L655.324 40.5026ZM668.991 57.591L669.66 58.3346L669.662 58.3326L668.991 57.591ZM668.624 48.0411L668.066 48.8713L668.068 48.8724L668.624 48.0411ZM654.528 44.3517L654.731 43.3725L653.751 43.1699L653.549 44.1491L654.528 44.3517ZM651.97 56.712L650.991 56.5094L650.789 57.4886L651.768 57.6913L651.97 56.712ZM653.734 24.6913L653.937 23.7121L652.958 23.5095L652.755 24.4887L653.734 24.6913ZM676.832 33.3099L677.75 32.9123L677.749 32.9096L676.832 33.3099ZM674.307 43.7073L673.709 42.9057L673.702 42.9109L674.307 43.7073ZM671.06 45.1796L670.799 44.2145L668.615 44.8066L670.523 46.0228L671.06 45.1796ZM674.621 48.3347L675.448 47.7727L675.447 47.7704L674.621 48.3347ZM672.278 60.864L671.628 60.1044L671.627 60.1046L672.278 60.864ZM646.468 59.8117L645.488 59.6091L645.286 60.5883L646.265 60.791L646.468 59.8117ZM663.776 43.2726C665.854 43.7025 667.649 43.7766 669.095 43.3926L668.581 41.4596C667.565 41.7297 666.12 41.7152 664.182 41.3141L663.776 43.2726ZM669.095 43.3926C670.239 43.0886 671.204 42.5102 671.949 41.646C672.687 40.7894 673.165 39.7023 673.426 38.4391L671.468 38.0339C671.258 39.05 670.899 39.8007 670.434 40.3406C669.975 40.873 669.371 41.2498 668.581 41.4596L669.095 43.3926ZM673.426 38.4391C673.691 37.161 673.668 35.9606 673.287 34.8787C672.903 33.7874 672.181 32.8946 671.181 32.1988L670.039 33.8405C670.738 34.3275 671.173 34.8956 671.401 35.5432C671.632 36.2002 671.678 37.0169 671.468 38.0339L673.426 38.4391ZM671.179 32.1973C670.053 31.4182 668.379 30.8388 666.265 30.4014L665.86 32.36C667.89 32.78 669.248 33.2933 670.041 33.842L671.179 32.1973ZM666.265 30.4014L657.778 28.6454L657.372 30.6039L665.86 32.36L666.265 30.4014ZM656.596 29.422L654.345 40.3L656.304 40.7052L658.554 29.8272L656.596 29.422ZM655.122 41.4819L663.776 43.2726L664.182 41.3141L655.527 39.5233L655.122 41.4819ZM662.024 59.8134C665.122 60.4544 667.747 60.055 669.66 58.3346L668.322 56.8474C667.05 57.9915 665.165 58.4209 662.429 57.8549L662.024 59.8134ZM669.662 58.3326C670.843 57.264 671.593 55.8537 671.943 54.163L669.985 53.7578C669.708 55.0953 669.143 56.1055 668.32 56.8494L669.662 58.3326ZM671.943 54.163C672.237 52.7407 672.181 51.4055 671.705 50.2003C671.227 48.9921 670.36 47.9995 669.179 47.2098L668.068 48.8724C668.975 49.4787 669.542 50.1707 669.845 50.9356C670.148 51.7035 670.218 52.6299 669.985 53.7578L671.943 54.163ZM669.181 47.2109C667.923 46.3664 666.234 45.7526 664.174 45.3264L663.769 47.285C665.694 47.6833 667.106 48.2264 668.066 48.8713L669.181 47.2109ZM664.174 45.3264L654.731 43.3725L654.325 45.331L663.769 47.285L664.174 45.3264ZM653.549 44.1491L650.991 56.5094L652.95 56.9146L655.507 44.5544L653.549 44.1491ZM651.768 57.6913L662.024 59.8134L662.429 57.8549L652.173 55.7327L651.768 57.6913ZM653.532 25.6706L668.617 28.792L669.023 26.8335L653.937 23.7121L653.532 25.6706ZM668.617 28.792C672.539 29.6033 674.861 31.2952 675.916 33.7103L677.749 32.9096C676.345 29.6967 673.326 27.7238 669.023 26.8335L668.617 28.792ZM675.915 33.7075C676.547 35.1666 676.698 36.7347 676.344 38.4445L678.303 38.8498C678.734 36.7663 678.558 34.7762 677.75 32.9123L675.915 33.7075ZM676.344 38.4445C675.927 40.4631 675.033 41.9181 673.709 42.9057L674.905 44.5089C676.686 43.1805 677.804 41.2621 678.303 38.8498L676.344 38.4445ZM673.702 42.9109C673.027 43.4233 672.075 43.8685 670.799 44.2145L671.322 46.1448C672.758 45.7555 673.97 45.2191 674.912 44.5037L673.702 42.9109ZM670.523 46.0228C672.125 47.0442 673.188 48.0095 673.795 48.899L675.447 47.7704C674.626 46.5692 673.315 45.4311 671.598 44.3365L670.523 46.0228ZM673.794 48.8966C674.87 50.4807 675.213 52.4648 674.698 54.9573L676.656 55.3626C677.255 52.4678 676.895 49.9018 675.448 47.7727L673.794 48.8966ZM674.698 54.9573C674.276 56.9981 673.261 58.7053 671.628 60.1044L672.928 61.6235C674.89 59.9438 676.142 57.8483 676.656 55.3626L674.698 54.9573ZM671.627 60.1046C669.249 62.1431 665.945 62.8206 661.517 61.9043L661.112 63.8629C665.928 64.8594 669.933 64.1904 672.929 61.6233L671.627 60.1046ZM661.517 61.9043L646.67 58.8324L646.265 60.791L661.112 63.8629L661.517 61.9043ZM647.447 60.0143L654.713 24.894L652.755 24.4887L645.488 59.6091L647.447 60.0143Z" fill="white"/>
<path d="M724.079 58.4903C726.269 59.1178 728.124 59.1749 729.642 58.6617C731.176 58.153 732.27 56.7565 732.925 54.472C733.628 52.0155 733.216 50.0858 731.688 48.683C730.868 47.9402 729.66 47.3402 728.064 46.8831L716.657 43.6158L713.283 55.3979L724.079 58.4903ZM713.136 38.2646L729.096 42.8361C731.725 43.589 733.782 44.5931 735.268 45.8483C738.086 48.2468 738.927 51.4254 737.794 55.3841C737.202 57.4495 736.288 59.0161 735.051 60.0839C733.829 61.1562 732.337 61.8718 730.576 62.2305C731.764 63.1636 732.567 64.1724 732.985 65.257C733.418 66.3461 733.386 67.9032 732.891 69.9284L731.731 74.5991C731.401 75.9269 731.231 76.9362 731.219 77.627C731.187 78.803 731.486 79.6505 732.116 80.1696L731.894 80.9441L726.168 79.3038C726.096 78.9616 726.081 78.5424 726.122 78.0461C726.162 77.5499 726.344 76.6199 726.667 75.2564L728.032 69.4255C728.568 67.141 728.163 65.3913 726.818 64.1764C726.047 63.4985 724.708 62.8861 722.799 62.3393L712.167 59.294L707.931 74.0802L703.261 72.7424L713.136 38.2646Z" fill="black"/>
<path d="M729.642 58.6617L729.327 57.7126L729.322 57.7144L729.642 58.6617ZM731.688 48.683L732.364 47.9463L732.359 47.9419L731.688 48.683ZM716.657 43.6158L716.933 42.6545L715.971 42.3791L715.696 43.3405L716.657 43.6158ZM713.283 55.3979L712.321 55.1225L712.046 56.0839L713.007 56.3592L713.283 55.3979ZM713.136 38.2646L713.412 37.3033L712.45 37.0279L712.175 37.9892L713.136 38.2646ZM735.268 45.8483L735.916 45.0868L735.913 45.0844L735.268 45.8483ZM735.051 60.0839L734.397 59.3269L734.391 59.3324L735.051 60.0839ZM730.576 62.2305L730.376 61.2506L728.257 61.6821L729.958 63.0171L730.576 62.2305ZM732.985 65.257L732.051 65.6162L732.055 65.6265L732.985 65.257ZM732.891 69.9284L733.862 70.1695L733.862 70.166L732.891 69.9284ZM731.731 74.5991L730.76 74.3581L730.76 74.3582L731.731 74.5991ZM731.219 77.627L732.219 77.6543L732.219 77.6439L731.219 77.627ZM732.116 80.1696L733.078 80.4449L733.258 79.8146L732.752 79.3978L732.116 80.1696ZM731.894 80.9441L731.619 81.9054L732.58 82.1808L732.856 81.2195L731.894 80.9441ZM726.168 79.3038L725.189 79.5078L725.312 80.0988L725.892 80.2651L726.168 79.3038ZM726.667 75.2564L727.64 75.4868L727.64 75.4844L726.667 75.2564ZM728.032 69.4255L727.059 69.1971L727.058 69.1975L728.032 69.4255ZM726.818 64.1764L727.489 63.4342L727.479 63.4255L726.818 64.1764ZM712.167 59.294L712.442 58.3326L711.481 58.0572L711.205 59.0186L712.167 59.294ZM707.931 74.0802L707.656 75.0415L708.617 75.3169L708.893 74.3556L707.931 74.0802ZM703.261 72.7424L702.299 72.467L702.024 73.4283L702.985 73.7037L703.261 72.7424ZM723.804 59.4517C726.11 60.1124 728.186 60.2095 729.962 59.6091L729.322 57.7144C728.062 58.1404 726.429 58.1232 724.354 57.529L723.804 59.4517ZM729.957 59.6109C731.934 58.9552 733.186 57.1907 733.886 54.7474L731.963 54.1967C731.355 56.3222 730.418 57.3508 729.327 57.7126L729.957 59.6109ZM733.886 54.7474C734.665 52.0282 734.242 49.6696 732.364 47.9463L731.012 49.4197C732.191 50.502 732.592 52.0027 731.963 54.1967L733.886 54.7474ZM732.359 47.9419C731.383 47.0579 730.015 46.4017 728.339 45.9217L727.789 47.8444C729.305 48.2787 730.352 48.8225 731.017 49.4241L732.359 47.9419ZM728.339 45.9217L716.933 42.6545L716.382 44.5772L727.789 47.8444L728.339 45.9217ZM715.696 43.3405L712.321 55.1225L714.244 55.6733L717.619 43.8912L715.696 43.3405ZM713.007 56.3592L723.804 59.4517L724.354 57.529L713.558 54.4366L713.007 56.3592ZM712.861 39.226L728.821 43.7974L729.372 41.8747L713.412 37.3033L712.861 39.226ZM728.821 43.7974C731.365 44.5261 733.279 45.4773 734.623 46.6122L735.913 45.0844C734.285 43.7088 732.085 42.6519 729.372 41.8747L728.821 43.7974ZM734.62 46.6098C735.894 47.6941 736.684 48.9191 737.046 50.2872C737.41 51.6632 737.362 53.2595 736.832 55.1087L738.755 55.6594C739.359 53.55 739.457 51.5777 738.979 49.7751C738.5 47.9647 737.46 46.401 735.916 45.0868L734.62 46.6098ZM736.832 55.1087C736.278 57.0449 735.447 58.4206 734.397 59.3269L735.704 60.8409C737.128 59.6116 738.126 57.854 738.755 55.6594L736.832 55.1087ZM734.391 59.3324C733.314 60.2779 731.986 60.9228 730.376 61.2506L730.775 63.2104C732.689 62.8207 734.344 62.0345 735.71 60.8354L734.391 59.3324ZM729.958 63.0171C731.047 63.8716 731.716 64.7433 732.051 65.6161L733.918 64.8979C733.419 63.6015 732.482 62.4556 731.193 61.4439L729.958 63.0171ZM732.055 65.6265C732.372 66.4227 732.4 67.7292 731.92 69.6908L733.862 70.166C734.373 68.0772 734.463 66.2695 733.914 64.8876L732.055 65.6265ZM731.921 69.6874L730.76 74.3581L732.701 74.8402L733.862 70.1695L731.921 69.6874ZM730.76 74.3582C730.427 75.7027 730.233 76.8019 730.219 77.6102L732.219 77.6439C732.229 77.0705 732.376 76.1511 732.701 74.84L730.76 74.3582ZM730.22 77.5997C730.183 78.9417 730.521 80.1508 731.48 80.9414L732.752 79.3978C732.452 79.1502 732.191 78.6642 732.219 77.6543L730.22 77.5997ZM731.155 79.8942L730.933 80.6687L732.856 81.2195L733.078 80.4449L731.155 79.8942ZM732.17 79.9828L726.443 78.3424L725.892 80.2651L731.619 81.9054L732.17 79.9828ZM727.147 79.0997C727.101 78.8819 727.082 78.5654 727.118 78.1276L725.125 77.9647C725.079 78.5195 725.091 79.0414 725.189 79.5078L727.147 79.0997ZM727.118 78.1276C727.152 77.718 727.315 76.8592 727.64 75.4868L725.694 75.026C725.373 76.3806 725.173 77.3817 725.125 77.9647L727.118 78.1276ZM727.64 75.4844L729.006 69.6535L727.058 69.1975L725.693 75.0284L727.64 75.4844ZM729.006 69.6539C729.596 67.136 729.185 64.9667 727.489 63.4343L726.148 64.9185C727.141 65.8159 727.54 67.146 727.059 69.1971L729.006 69.6539ZM727.479 63.4255C726.535 62.5956 725.016 61.9344 723.074 61.378L722.523 63.3007C724.399 63.8378 725.56 64.4014 726.158 64.9273L727.479 63.4255ZM723.074 61.378L712.442 58.3326L711.891 60.2553L722.523 63.3007L723.074 61.378ZM711.205 59.0186L706.97 73.8048L708.893 74.3556L713.128 59.5693L711.205 59.0186ZM708.207 73.1189L703.536 71.781L702.985 73.7037L707.656 75.0415L708.207 73.1189ZM704.222 73.0177L714.098 38.54L712.175 37.9892L702.299 72.467L704.222 73.0177Z" fill="white"/>
<path d="M769.348 54.5957C775.332 56.6661 779.096 60.1215 780.642 64.9621C781.85 68.7385 781.645 72.9646 780.027 77.6405C778.276 82.701 775.536 86.4634 771.807 88.9277C767.43 91.8221 762.45 92.3034 756.866 90.3714C751.652 88.5672 748.149 85.4261 746.357 80.9482C744.846 76.7051 744.968 72.0456 746.724 66.9698C748.311 62.3862 750.806 58.8578 754.211 56.3847C758.581 53.2122 763.627 52.6159 769.348 54.5957ZM758.841 86.4562C762.886 87.8559 766.309 87.4213 769.109 85.1523C771.93 82.8733 773.992 79.8496 775.296 76.0812C776.675 72.0974 776.739 68.5285 775.488 65.3744C774.252 62.2257 771.827 60.026 768.212 58.7753C764.705 57.5618 761.427 57.7793 758.376 59.4278C755.331 61.0608 752.997 64.223 751.374 68.9143C750.075 72.6673 749.924 76.1632 750.922 79.4019C751.941 82.6305 754.58 84.982 758.841 86.4562Z" fill="black"/>
<path d="M780.642 64.9621L779.689 65.2663L779.69 65.2667L780.642 64.9621ZM771.807 88.9277L771.256 88.0934L771.255 88.0935L771.807 88.9277ZM746.357 80.9482L745.415 81.2837L745.421 81.3018L745.429 81.3197L746.357 80.9482ZM754.211 56.3847L753.623 55.5754L753.623 55.5756L754.211 56.3847ZM769.109 85.1523L768.481 84.3745L768.479 84.3754L769.109 85.1523ZM775.488 65.3744L774.557 65.7397L774.558 65.7431L775.488 65.3744ZM758.376 59.4278L758.849 60.309L758.852 60.3075L758.376 59.4278ZM750.922 79.4019L749.967 79.6963L749.969 79.7027L750.922 79.4019ZM769.021 55.5408C774.788 57.5362 778.263 60.7995 779.689 65.2663L781.595 64.6579C779.93 59.4435 775.875 55.7959 769.675 53.6507L769.021 55.5408ZM779.69 65.2667C780.817 68.7909 780.647 72.7904 779.082 77.3135L780.972 77.9675C782.643 73.1388 782.883 68.6861 781.595 64.6575L779.69 65.2667ZM779.082 77.3135C777.388 82.2087 774.767 85.7729 771.256 88.0934L772.358 89.7619C776.305 87.1538 779.164 83.1933 780.972 77.9675L779.082 77.3135ZM771.255 88.0935C767.173 90.793 762.525 91.2712 757.193 89.4264L756.539 91.3164C762.374 93.3355 767.687 92.8512 772.359 89.7618L771.255 88.0935ZM757.193 89.4264C752.209 87.7018 748.953 84.7449 747.285 80.5767L745.429 81.3197C747.344 86.1073 751.095 89.4325 756.539 91.3164L757.193 89.4264ZM747.299 80.6127C745.878 76.6229 745.973 72.2008 747.67 67.2968L745.779 66.6428C743.964 71.8905 743.813 76.7873 745.415 81.2837L747.299 80.6127ZM747.67 67.2968C749.199 62.8762 751.584 59.5289 754.798 57.1937L753.623 55.5756C750.028 58.1867 747.422 61.8962 745.779 66.6428L747.67 67.2968ZM754.798 57.1939C758.869 54.2389 763.565 53.6527 769.021 55.5408L769.675 53.6507C763.688 51.5791 758.293 52.1855 753.623 55.5754L754.798 57.1939ZM758.514 87.4012C762.814 88.8892 766.616 88.4595 769.739 85.9293L768.479 84.3754C766.002 86.3831 762.958 86.8227 759.168 85.5112L758.514 87.4012ZM769.737 85.9302C772.718 83.5219 774.882 80.3353 776.241 76.4082L774.351 75.7542C773.102 79.3638 771.142 82.2247 768.481 84.3745L769.737 85.9302ZM776.241 76.4082C777.678 72.2549 777.776 68.4325 776.417 65.0058L774.558 65.7431C775.701 68.6245 775.671 71.9399 774.351 75.7542L776.241 76.4082ZM776.418 65.0092C775.061 61.5507 772.39 59.1626 768.539 57.8302L767.885 59.7203C771.264 60.8894 773.443 62.9007 774.557 65.7397L776.418 65.0092ZM768.539 57.8302C764.788 56.5324 761.217 56.7562 757.901 58.548L758.852 60.3075C761.637 58.8024 764.622 58.5912 767.885 59.7203L768.539 57.8302ZM757.904 58.5465C754.557 60.3414 752.098 63.7615 750.428 68.5873L752.319 69.2413C753.895 64.6846 756.105 61.7802 758.849 60.309L757.904 58.5465ZM750.428 68.5873C749.073 72.5055 748.896 76.2213 749.967 79.6963L751.878 79.1075C750.953 76.1051 751.077 72.8292 752.319 69.2413L750.428 68.5873ZM749.969 79.7027C751.112 83.3275 754.062 85.8608 758.514 87.4012L759.168 85.5112C755.098 84.1031 752.769 81.9335 751.876 79.1011L749.969 79.7027Z" fill="white"/>
<path d="M806.41 92.2995L807.321 75.5704L796.003 88.0778L806.41 92.2995ZM806.969 69.684L812.059 71.749L810.635 109.874L805.703 107.874L806.371 96.5519L793.227 91.2196L785.591 99.7146L780.976 97.8424L806.969 69.684Z" fill="black"/>
<path d="M806.41 92.2995L806.034 93.2262L807.332 93.7529L807.408 92.3539L806.41 92.2995ZM807.321 75.5704L808.32 75.6248L808.473 72.8069L806.58 74.8994L807.321 75.5704ZM796.003 88.0778L795.262 87.4068L794.302 88.467L795.627 89.0044L796.003 88.0778ZM806.969 69.684L807.345 68.7573L806.704 68.4972L806.234 69.0057L806.969 69.684ZM812.059 71.749L813.059 71.7863L813.085 71.0858L812.435 70.8223L812.059 71.749ZM810.635 109.874L810.259 110.801L811.581 111.337L811.635 109.912L810.635 109.874ZM805.703 107.874L804.705 107.815L804.663 108.531L805.328 108.8L805.703 107.874ZM806.371 96.5519L807.369 96.6107L807.411 95.8948L806.747 95.6253L806.371 96.5519ZM793.227 91.2196L793.603 90.293L792.952 90.0291L792.483 90.5512L793.227 91.2196ZM785.591 99.7146L785.215 100.641L785.866 100.905L786.335 100.383L785.591 99.7146ZM780.976 97.8424L780.241 97.1641L779.261 98.2258L780.6 98.769L780.976 97.8424ZM807.408 92.3539L808.32 75.6248L806.323 75.516L805.411 92.2452L807.408 92.3539ZM806.58 74.8994L795.262 87.4068L796.744 88.7488L808.063 76.2413L806.58 74.8994ZM795.627 89.0044L806.034 93.2262L806.786 91.3729L796.379 87.1511L795.627 89.0044ZM806.593 70.6106L811.683 72.6756L812.435 70.8223L807.345 68.7573L806.593 70.6106ZM811.06 71.7117L809.636 109.837L811.635 109.912L813.059 71.7863L811.06 71.7117ZM811.011 108.948L806.079 106.947L805.328 108.8L810.259 110.801L811.011 108.948ZM806.702 107.932L807.369 96.6107L805.373 96.4931L804.705 107.815L806.702 107.932ZM806.747 95.6253L793.603 90.293L792.851 92.1463L805.995 97.4786L806.747 95.6253ZM792.483 90.5512L784.848 99.0462L786.335 100.383L793.97 91.8881L792.483 90.5512ZM785.967 98.788L781.352 96.9157L780.6 98.769L785.215 100.641L785.967 98.788ZM781.711 98.5207L807.704 70.3623L806.234 69.0057L780.241 97.1641L781.711 98.5207Z" fill="white"/>
<path d="M833.809 115.857C835.299 116.552 836.595 116.968 837.699 117.106C839.678 117.329 841.595 116.876 843.451 115.748C844.933 114.841 846.344 113.451 847.684 111.58C848.476 110.459 849.117 109.375 849.605 108.327C851.483 104.3 852.138 100.798 851.569 97.8212C851.014 94.8508 848.96 92.5367 845.405 90.8787L837.594 87.236L825.954 112.194L833.809 115.857ZM834.934 81.3886L848.099 87.5286C852.568 89.6131 855.295 92.8155 856.279 97.1357C857.143 101.022 856.532 105.2 854.448 109.67C852.838 113.122 850.734 115.939 848.135 118.121C843.551 121.982 838.471 122.611 832.896 120.011L819.775 113.892L834.934 81.3886Z" fill="black"/>
<path d="M837.699 117.106L837.575 118.098L837.587 118.1L837.699 117.106ZM843.451 115.748L843.97 116.602L843.972 116.601L843.451 115.748ZM847.684 111.58L848.497 112.162L848.501 112.157L847.684 111.58ZM851.569 97.8212L850.586 98.0046L850.586 98.0089L851.569 97.8212ZM837.594 87.236L838.017 86.3297L837.111 85.9071L836.688 86.8133L837.594 87.236ZM825.954 112.194L825.048 111.771L824.625 112.678L825.532 113.1L825.954 112.194ZM834.934 81.3886L835.357 80.4823L834.45 80.0597L834.028 80.9659L834.934 81.3886ZM856.279 97.1357L857.256 96.9189L857.254 96.9136L856.279 97.1357ZM848.135 118.121L847.492 117.355L847.491 117.356L848.135 118.121ZM819.775 113.892L818.869 113.469L818.446 114.375L819.352 114.798L819.775 113.892ZM833.386 116.764C834.93 117.484 836.331 117.943 837.575 118.098L837.822 116.113C836.859 115.994 835.668 115.621 834.232 114.951L833.386 116.764ZM837.587 118.1C839.807 118.349 841.944 117.834 843.97 116.602L842.931 114.893C841.247 115.917 839.55 116.308 837.811 116.112L837.587 118.1ZM843.972 116.601C845.6 115.605 847.103 114.109 848.497 112.162L846.871 110.998C845.585 112.794 844.266 114.076 842.929 114.895L843.972 116.601ZM848.501 112.157C849.321 110.996 849.994 109.86 850.511 108.75L848.699 107.905C848.24 108.889 847.631 109.922 846.867 111.003L848.501 112.157ZM850.511 108.75C852.439 104.617 853.174 100.893 852.551 97.6335L850.586 98.0089C851.102 100.704 850.528 103.984 848.699 107.905L850.511 108.75ZM852.552 97.6377C851.921 94.2584 849.579 91.7219 845.828 89.9724L844.982 91.785C848.341 93.3515 850.108 95.4433 850.586 98.0046L852.552 97.6377ZM845.828 89.9724L838.017 86.3297L837.172 88.1423L844.982 91.785L845.828 89.9724ZM836.688 86.8133L825.048 111.771L826.861 112.617L838.501 87.6587L836.688 86.8133ZM825.532 113.1L833.386 116.764L834.232 114.951L826.377 111.288L825.532 113.1ZM834.511 82.2949L847.676 88.4349L848.522 86.6223L835.357 80.4823L834.511 82.2949ZM847.676 88.4349C851.902 90.4057 854.397 93.3756 855.304 97.3579L857.254 96.9136C856.193 92.2554 853.235 88.8205 848.522 86.6223L847.676 88.4349ZM855.303 97.3526C856.108 100.977 855.555 104.929 853.541 109.247L855.354 110.093C857.509 105.472 858.177 101.068 857.256 96.9189L855.303 97.3526ZM853.541 109.247C851.985 112.583 849.966 115.278 847.492 117.355L848.779 118.887C851.501 116.6 853.69 113.66 855.354 110.093L853.541 109.247ZM847.491 117.356C845.321 119.183 843.081 120.209 840.764 120.496C838.445 120.784 835.971 120.342 833.318 119.105L832.473 120.917C835.396 122.281 838.249 122.824 841.01 122.481C843.773 122.139 846.365 120.919 848.78 118.886L847.491 117.356ZM833.318 119.105L820.198 112.985L819.352 114.798L832.473 120.917L833.318 119.105ZM820.681 114.314L835.84 81.8113L834.028 80.9659L818.869 113.469L820.681 114.314Z" fill="white"/>
<path d="M874.066 99.9962L880.197 103.286L874.94 134.876L898.289 112.993L904.356 116.248L887.4 147.851L883.334 145.669L893.342 127.017C893.688 126.372 894.276 125.311 895.105 123.835C895.933 122.359 896.806 120.767 897.722 119.061L874.406 140.879L870.168 138.605L875.391 107.08L874.871 108.048C874.456 108.822 873.835 110.013 873.01 111.62C872.206 113.221 871.605 114.394 871.205 115.14L861.197 133.792L857.11 131.599L874.066 99.9962Z" fill="black"/>
<path d="M874.066 99.9962L874.538 99.1151L873.657 98.6423L873.184 99.5235L874.066 99.9962ZM880.197 103.286L881.183 103.45L881.301 102.743L880.67 102.405L880.197 103.286ZM874.94 134.876L873.953 134.712L873.468 137.626L875.624 135.606L874.94 134.876ZM898.289 112.993L898.762 112.112L898.13 111.772L897.606 112.263L898.289 112.993ZM904.356 116.248L905.237 116.721L905.71 115.84L904.829 115.367L904.356 116.248ZM887.4 147.851L886.928 148.732L887.809 149.205L888.281 148.324L887.4 147.851ZM883.334 145.669L882.453 145.197L881.98 146.078L882.862 146.551L883.334 145.669ZM897.722 119.061L898.603 119.534L897.038 118.331L897.722 119.061ZM874.406 140.879L873.934 141.76L874.566 142.1L875.09 141.609L874.406 140.879ZM870.168 138.605L869.182 138.442L869.065 139.148L869.695 139.487L870.168 138.605ZM875.391 107.08L876.377 107.243L874.51 106.607L875.391 107.08ZM873.01 111.62L872.12 111.164L872.116 111.172L873.01 111.62ZM861.197 133.792L860.724 134.673L861.606 135.146L862.078 134.265L861.197 133.792ZM857.11 131.599L856.229 131.126L855.756 132.008L856.637 132.48L857.11 131.599ZM873.593 100.877L879.724 104.167L880.67 102.405L874.538 99.1151L873.593 100.877ZM879.21 103.122L873.953 134.712L875.926 135.04L881.183 103.45L879.21 103.122ZM875.624 135.606L898.973 113.723L897.606 112.263L874.256 134.147L875.624 135.606ZM897.817 113.874L903.883 117.129L904.829 115.367L898.762 112.112L897.817 113.874ZM903.475 115.775L886.519 147.378L888.281 148.324L905.237 116.721L903.475 115.775ZM887.873 146.97L883.807 144.788L882.862 146.551L886.928 148.732L887.873 146.97ZM884.215 146.142L894.223 127.49L892.46 126.545L882.453 145.197L884.215 146.142ZM894.223 127.49C894.564 126.854 895.148 125.801 895.976 124.325L894.233 123.345C893.403 124.822 892.812 125.89 892.46 126.545L894.223 127.49ZM895.976 124.325C896.809 122.842 897.684 121.245 898.603 119.534L896.84 118.588C895.927 120.29 895.058 121.876 894.233 123.345L895.976 124.325ZM897.038 118.331L873.723 140.149L875.09 141.609L898.405 119.791L897.038 118.331ZM874.879 139.998L870.641 137.724L869.695 139.487L873.934 141.76L874.879 139.998ZM871.155 138.769L876.377 107.243L874.404 106.916L869.182 138.442L871.155 138.769ZM874.51 106.607L873.99 107.575L875.753 108.521L876.272 107.552L874.51 106.607ZM873.99 107.575C873.57 108.358 872.946 109.555 872.12 111.164L873.899 112.077C874.724 110.471 875.342 109.287 875.753 108.521L873.99 107.575ZM872.116 111.172C871.313 112.771 870.717 113.934 870.323 114.667L872.086 115.613C872.493 114.855 873.1 113.671 873.904 112.069L872.116 111.172ZM870.323 114.667L860.316 133.319L862.078 134.265L872.086 115.613L870.323 114.667ZM861.67 132.911L857.583 130.718L856.637 132.48L860.724 134.673L861.67 132.911ZM857.991 132.072L874.947 100.469L873.184 99.5235L856.229 131.126L857.991 132.072Z" fill="white"/>
<path d="M921.497 151.122L925.082 134.756L911.903 145.284L921.497 151.122ZM925.679 128.889L930.372 131.744L922.847 169.147L918.3 166.381L920.776 155.313L908.658 147.94L899.759 155.099L895.504 152.51L925.679 128.889Z" fill="black"/>
<path d="M921.497 151.122L920.977 151.976L922.174 152.704L922.474 151.336L921.497 151.122ZM925.082 134.756L926.059 134.97L926.663 132.213L924.458 133.974L925.082 134.756ZM911.903 145.284L911.279 144.503L910.162 145.395L911.383 146.139L911.903 145.284ZM925.679 128.889L926.199 128.035L925.608 127.675L925.063 128.102L925.679 128.889ZM930.372 131.744L931.352 131.942L931.491 131.254L930.892 130.89L930.372 131.744ZM922.847 169.147L922.327 170.001L923.546 170.743L923.827 169.344L922.847 169.147ZM918.3 166.381L917.324 166.162L917.168 166.862L917.781 167.235L918.3 166.381ZM920.776 155.313L921.752 155.531L921.909 154.831L921.296 154.458L920.776 155.313ZM908.658 147.94L909.178 147.085L908.579 146.721L908.032 147.161L908.658 147.94ZM899.759 155.099L899.239 155.953L899.838 156.318L900.385 155.878L899.759 155.099ZM895.504 152.51L894.887 151.723L893.75 152.614L894.984 153.365L895.504 152.51ZM922.474 151.336L926.059 134.97L924.105 134.542L920.52 150.908L922.474 151.336ZM924.458 133.974L911.279 144.503L912.527 146.066L925.706 135.537L924.458 133.974ZM911.383 146.139L920.977 151.976L922.017 150.267L912.423 144.43L911.383 146.139ZM925.16 129.743L929.852 132.599L930.892 130.89L926.199 128.035L925.16 129.743ZM929.392 131.547L921.867 168.95L923.827 169.344L931.352 131.942L929.392 131.547ZM923.367 168.293L918.82 165.526L917.781 167.235L922.327 170.001L923.367 168.293ZM919.276 166.599L921.752 155.531L919.8 155.094L917.324 166.162L919.276 166.599ZM921.296 154.458L909.178 147.085L908.139 148.794L920.257 156.167L921.296 154.458ZM908.032 147.161L899.132 154.32L900.385 155.878L909.285 148.719L908.032 147.161ZM900.278 154.245L896.024 151.656L894.984 153.365L899.239 155.953L900.278 154.245ZM896.12 153.298L926.296 129.677L925.063 128.102L894.887 151.723L896.12 153.298Z" fill="white"/>
<path d="M951.544 145.058L964.902 154.113C967.542 155.903 969.164 158.093 969.767 160.685C970.379 163.262 969.772 165.899 967.946 168.593C966.375 170.91 964.284 172.443 961.674 173.19C959.072 173.924 956.276 173.277 953.285 171.249L943.949 164.921L935.442 177.47L931.42 174.744L951.544 145.058ZM963.87 165.86C965.349 163.677 965.546 161.647 964.459 159.77C963.853 158.75 962.775 157.714 961.226 156.664L953.223 151.239L946.25 161.526L954.253 166.95C956.058 168.174 957.78 168.781 959.419 168.771C961.071 168.77 962.555 167.8 963.87 165.86Z" fill="black"/>
<path d="M951.544 145.058L952.105 144.23L951.277 143.669L950.716 144.497L951.544 145.058ZM969.767 160.685L968.793 160.911L968.794 160.916L969.767 160.685ZM961.674 173.19L961.945 174.152L961.949 174.151L961.674 173.19ZM943.949 164.921L944.51 164.093L943.682 163.532L943.121 164.36L943.949 164.921ZM935.442 177.47L934.881 178.298L935.709 178.859L936.27 178.031L935.442 177.47ZM931.42 174.744L930.593 174.183L930.032 175.011L930.859 175.572L931.42 174.744ZM964.459 159.77L965.324 159.269L965.318 159.259L964.459 159.77ZM953.223 151.239L953.784 150.412L952.956 149.851L952.395 150.678L953.223 151.239ZM946.25 161.526L945.422 160.964L944.861 161.792L945.689 162.353L946.25 161.526ZM959.419 168.771L959.418 167.771L959.413 167.771L959.419 168.771ZM950.983 145.885L964.341 154.94L965.463 153.285L952.105 144.23L950.983 145.885ZM964.341 154.94C966.817 156.619 968.258 158.612 968.793 160.911L970.741 160.458C970.07 157.574 968.268 155.186 965.463 153.285L964.341 154.94ZM968.794 160.916C969.327 163.16 968.826 165.512 967.118 168.032L968.773 169.154C970.718 166.285 971.431 163.365 970.74 160.454L968.794 160.916ZM967.118 168.032C965.674 170.162 963.776 171.548 961.398 172.228L961.949 174.151C964.792 173.337 967.075 171.659 968.773 169.154L967.118 168.032ZM961.402 172.227C959.172 172.856 956.68 172.343 953.846 170.422L952.724 172.077C955.872 174.211 958.972 174.991 961.945 174.152L961.402 172.227ZM953.846 170.422L944.51 164.093L943.388 165.748L952.724 172.077L953.846 170.422ZM943.121 164.36L934.614 176.909L936.27 178.031L944.777 165.482L943.121 164.36ZM936.003 176.642L931.981 173.916L930.859 175.572L934.881 178.298L936.003 176.642ZM932.248 175.305L952.372 145.619L950.716 144.497L930.593 174.183L932.248 175.305ZM964.698 166.421C965.505 165.231 966.004 164.02 966.122 162.797C966.242 161.56 965.965 160.376 965.324 159.269L963.593 160.271C964.039 161.041 964.208 161.811 964.131 162.604C964.053 163.411 963.715 164.306 963.042 165.299L964.698 166.421ZM965.318 159.259C964.606 158.061 963.395 156.927 961.787 155.836L960.664 157.492C962.155 158.502 963.099 159.439 963.599 160.281L965.318 159.259ZM961.787 155.836L953.784 150.412L952.662 152.067L960.664 157.492L961.787 155.836ZM952.395 150.678L945.422 160.964L947.078 162.087L954.051 151.8L952.395 150.678ZM945.689 162.353L953.692 167.778L954.814 166.123L946.811 160.698L945.689 162.353ZM953.692 167.778C955.61 169.078 957.527 169.783 959.425 169.771L959.413 167.771C958.033 167.779 956.506 167.27 954.814 166.123L953.692 167.778ZM959.419 169.771C961.529 169.77 963.281 168.511 964.698 166.421L963.042 165.299C961.829 167.088 960.613 167.77 959.418 167.771L959.419 169.771Z" fill="white"/>
</svg>
